<svg version="1.1" id="Layer_1" xmlns="http://www.w3.org/2000/svg" xmlns:xlink="http://www.w3.org/1999/xlink" x="0px" y="0px"
	 width="100%" viewBox="0 0 500 500" enable-background="new 0 0 500 500" xml:space="preserve">
<path fill="#000000" opacity="1.000000" stroke="none" 
	d="
M1.000000,241.000000 
	C1.000000,161.017639 1.000000,81.035278 1.000000,1.026457 
	C167.612274,1.026457 334.224579,1.026457 500.918427,1.026457 
	C500.918427,167.575500 500.918427,334.151031 500.918427,500.863281 
	C334.333405,500.863281 167.666718,500.863281 1.000000,500.863281 
	C1.000000,427.566498 1.000000,354.249298 1.335054,280.521332 
	C5.744777,284.556335 9.176532,289.960022 14.042897,293.226166 
	C21.578838,298.283997 29.779724,302.743683 38.285725,305.848816 
	C46.157261,308.722321 54.799721,309.484009 63.102676,311.587067 
	C64.088661,317.739929 64.849510,323.532959 66.145943,329.203491 
	C66.910614,332.548096 68.523972,335.698700 69.831757,339.285950 
	C70.635109,341.026306 71.362358,342.417267 72.076019,344.232117 
	C72.086090,345.975189 71.680672,347.500031 72.199158,348.582123 
	C77.961006,360.607178 82.921387,373.155609 89.963982,384.393402 
	C99.401146,399.452179 110.589226,413.189362 124.266655,425.067627 
	C140.398758,439.077728 157.852173,450.647095 177.433304,458.794891 
	C199.548492,467.997101 222.658264,473.313110 246.759155,473.870483 
	C272.086975,474.456177 296.648712,470.547821 320.269714,461.404633 
	C338.197937,454.465027 355.162689,445.483978 369.605988,432.733490 
	C380.695770,422.943512 391.168213,412.333221 400.990265,401.266815 
	C408.701935,392.578186 414.254822,382.268982 419.920380,371.976379 
	C426.741394,359.584686 431.654877,346.708527 435.585907,333.343445 
	C440.131683,317.888367 442.064423,301.966675 442.835083,285.441589 
	C442.215118,274.591278 441.555786,264.195435 440.901001,253.388855 
	C438.166656,241.349869 435.740265,229.634781 432.542969,218.134018 
	C431.166412,213.182510 428.192352,208.675125 425.913208,203.766937 
	C425.882385,203.567886 425.738831,203.191483 425.839539,202.811676 
	C424.288483,199.297653 422.636780,196.163437 420.945251,192.815689 
	C420.905426,192.602158 420.747101,192.197617 420.845825,191.819534 
	C419.658234,188.673721 418.455017,185.863449 417.064697,183.149002 
	C415.327698,179.757721 412.673218,180.212784 410.868805,182.649811 
	C408.800568,185.443115 407.534637,188.830460 405.951355,191.977341 
	C405.982574,191.994949 405.948792,191.931717 405.618439,192.045135 
	C403.498718,195.095627 401.709381,198.032715 399.950531,200.980026 
	C399.981018,200.990250 399.963104,200.928482 399.651947,201.037033 
	C398.872589,202.083115 398.404388,203.020630 397.969238,203.974609 
	C398.002289,203.991074 397.942474,203.945450 397.620239,204.020599 
	C396.839783,205.052963 396.381622,206.010162 395.955750,206.975708 
	C395.988037,206.984039 395.953430,206.927017 395.588348,206.938812 
	C392.817444,210.281357 390.411591,213.612106 387.975769,216.941498 
	C387.945801,216.940170 387.946838,217.000198 387.624603,217.111343 
	C386.511078,218.127060 385.719788,219.031616 384.959015,219.962250 
	C384.989532,219.988327 384.932709,219.941620 384.608704,220.033157 
	C380.189484,224.268692 376.418976,228.825790 371.874237,232.397812 
	C369.254395,234.456940 365.420776,235.741287 362.065430,235.895752 
	C358.084503,236.078995 354.030426,234.672607 350.000183,233.980682 
	C349.992340,234.006241 350.044952,233.996811 349.973175,233.734985 
	C349.597961,233.298386 349.294556,233.123611 348.989441,232.981079 
	C348.987762,233.013321 349.052063,233.007446 348.975647,232.746979 
	C348.598236,232.306107 348.297241,232.125717 347.992737,231.975571 
	C347.989227,232.005829 348.049469,231.996796 347.978424,231.727570 
	C347.581604,231.376572 347.255798,231.294800 346.703003,231.144897 
	C346.476013,231.076767 346.015717,230.963577 345.944580,230.715973 
	C345.585052,230.301422 345.296692,230.134476 344.929504,229.736145 
	C344.661194,229.209839 344.392395,229.041351 344.020691,228.643372 
	C343.337830,227.834427 342.678558,227.381439 342.013184,226.961365 
	C342.007050,226.994278 342.073944,226.997314 341.998352,226.730530 
	C341.614502,226.281357 341.306274,226.098938 340.925537,225.690765 
	C340.665558,225.177048 340.400299,225.023590 339.979004,224.745316 
	C339.597992,224.312576 339.295197,224.139160 338.989288,223.989441 
	C338.986145,224.013168 339.032257,224.000336 339.006348,223.643097 
	C337.998047,222.517746 337.015686,221.749649 336.021912,220.984039 
	C336.010529,220.986542 336.017548,220.963852 335.946960,220.717072 
	C335.591187,220.298874 335.306000,220.127441 335.008850,219.977081 
	C334.996887,219.998169 335.039062,219.974564 335.022064,219.640839 
	C334.359070,218.518250 333.713074,217.729385 333.037842,216.945099 
	C333.008636,216.949677 333.063629,216.969254 333.008911,216.698914 
	C332.643677,216.261551 332.333099,216.094528 332.015991,215.958374 
	C332.009399,215.989243 332.071381,215.977280 332.010437,215.705948 
	C331.636261,215.265381 331.323029,215.096161 331.007355,214.960266 
	C331.004944,214.993607 331.071625,214.989151 330.991425,214.728760 
	C330.606140,214.294144 330.301025,214.119919 329.993683,213.977692 
	C329.991425,214.009674 330.055237,214.003311 329.976166,213.741226 
	C329.596069,213.289185 329.295044,213.099213 328.967712,212.725601 
	C328.941376,212.541946 328.830597,212.187820 328.899109,211.890717 
	C328.658081,211.376099 328.348511,211.158585 328.018982,210.964676 
	C327.998993,210.988297 328.058136,210.970215 327.997498,210.705170 
	C327.630463,210.275391 327.324097,210.110657 327.009125,209.972763 
	C327.000519,209.999619 327.053528,209.980362 326.984192,209.720093 
	C326.610657,209.298035 326.306458,209.136261 325.998199,208.991241 
	C325.994141,209.007980 326.026611,208.996460 325.953278,208.741547 
	C325.584045,208.314056 325.288147,208.141464 324.987732,207.990234 
	C324.983215,208.011597 325.026184,208.003799 325.016541,207.666595 
	C324.354462,206.530090 323.702026,205.730789 323.030914,204.957245 
	C323.012238,204.982986 323.075745,204.986526 322.999359,204.717987 
	C322.611298,204.267044 322.299591,204.084641 321.951172,203.713486 
	C321.914459,203.524750 321.793793,203.159622 321.856995,202.873032 
	C321.621704,202.370850 321.323212,202.155243 321.011658,201.966217 
	C320.998657,201.992783 321.057739,201.989273 320.938171,201.676178 
	C320.418793,201.165466 320.019012,200.967834 319.752686,200.581299 
	C319.740631,200.012070 319.595062,199.631744 319.390961,199.225494 
	C319.332428,199.199554 319.286499,199.319061 319.251892,199.066223 
	C318.834137,198.516373 318.450958,198.219345 318.032806,197.941711 
	C317.997803,197.961136 318.076385,197.948898 318.052826,197.599792 
	C317.048706,195.818604 316.068115,194.386505 315.078857,192.963928 
	C315.070129,192.973419 315.057129,192.953247 314.999298,192.690857 
	C314.639038,192.264084 314.336639,192.099701 314.028137,191.968750 
	C314.022034,192.002197 314.061188,191.946289 314.044678,191.615143 
	C313.370178,190.510345 312.712128,189.736679 312.030975,188.980225 
	C312.007843,188.997452 312.044464,188.954071 312.028931,188.622223 
	C311.361725,187.505508 310.710083,186.720627 310.034058,185.968079 
	C310.009644,186.000397 310.074585,185.951538 310.050598,185.615646 
	C309.356384,184.489639 308.686188,183.699524 307.973206,182.699738 
	C307.930450,182.490067 307.821075,182.076324 307.885315,181.800415 
	C307.651276,181.327667 307.352997,181.130844 306.964844,180.706482 
	C306.682404,180.183167 306.410278,180.020844 306.023865,179.646729 
	C305.350006,178.188202 304.710785,177.074890 304.050293,175.973907 
	C304.029053,175.986221 304.052216,175.943253 304.028320,175.599548 
	C303.362854,174.153717 302.721344,173.051620 302.050476,171.971161 
	C302.021118,171.992798 302.065369,171.935715 302.045135,171.563354 
	C300.029541,167.449173 298.034180,163.707352 296.019409,159.982758 
	C296.000000,160.000000 296.041718,159.968277 296.034058,159.580307 
	C294.350891,155.442123 292.675446,151.691925 290.958862,147.723358 
	C290.917725,147.504990 290.785156,147.080811 290.881104,146.678406 
	C287.487366,135.441742 286.522614,124.294586 286.923523,112.579514 
	C287.516571,109.341660 288.037598,106.511391 288.638458,103.247337 
	C286.050995,98.739182 281.441803,99.706039 276.574036,100.162788 
	C275.136200,100.049515 274.086426,100.006119 272.822144,99.621529 
	C267.730316,98.842430 262.852936,98.404526 257.518982,98.005234 
	C253.398666,98.011589 249.734970,97.979332 245.856369,97.602509 
	C243.077698,97.483185 240.513931,97.708420 237.502655,97.980011 
	C234.053101,98.028366 231.051071,98.030373 227.894623,97.700195 
	C220.817871,98.266754 213.751465,98.574036 207.010147,100.216064 
	C198.842529,102.205505 190.949707,105.323128 182.969025,107.972717 
	C183.000061,107.992867 182.952286,107.936012 182.561218,107.966324 
	C180.428711,108.641838 178.687241,109.287033 176.972290,109.965950 
	C176.998779,109.999680 176.947739,109.932976 176.564575,109.975800 
	C171.738724,112.014587 167.296021,114.010559 162.666046,116.019295 
	C162.478775,116.032066 162.129471,116.169586 161.850754,116.139000 
	C161.361923,116.397087 161.151810,116.685760 160.968567,116.986832 
	C160.995438,116.999222 160.990295,116.940269 160.620239,116.964058 
	C156.481293,119.320351 152.712372,121.652855 148.973969,123.993652 
	C149.004471,124.001953 149.006592,123.938766 148.731384,123.996475 
	C148.280487,124.368668 148.104813,124.683136 147.961899,124.995621 
	C147.994675,124.993629 147.978531,124.929977 147.612427,124.977386 
	C141.142853,129.671005 135.039368,134.317200 128.965515,138.974854 
	C128.995163,138.986298 128.969925,138.927948 128.615463,138.962387 
	C115.056946,148.790955 104.322845,160.985825 95.005539,174.361664 
	C89.227577,182.656464 84.413971,191.623001 79.108734,200.395096 
	C79.049957,200.502167 79.034569,200.745972 78.689270,200.908447 
	C78.179115,202.046005 78.014267,203.021118 77.597824,204.114136 
	C77.237907,204.765778 77.129593,205.299469 76.764061,205.937134 
	C76.390083,206.355423 76.273315,206.669769 76.077316,207.356476 
	C72.676056,216.842377 68.642609,225.770569 66.207962,235.115311 
	C63.000240,247.427277 60.543072,259.978851 60.930962,272.891785 
	C61.072826,277.614532 60.468239,282.359650 59.869450,287.207275 
	C53.802113,286.153625 47.992100,285.274994 42.353767,283.758148 
	C32.093231,280.997955 21.279173,270.778168 20.064568,261.389008 
	C18.605854,250.112854 22.194559,240.239990 28.606255,231.651215 
	C37.974007,219.102615 48.285355,207.258423 58.472626,194.925323 
	C60.952805,191.963394 58.935623,190.945984 56.735916,190.389832 
	C53.286846,189.517792 50.650394,190.876953 48.518822,193.956085 
	C42.171112,198.149719 35.275921,201.471786 30.380802,206.675354 
	C21.033827,216.611267 10.092795,225.373154 4.182538,238.238113 
	C3.648427,239.400726 2.085274,240.090591 1.000000,241.000000 
M336.258789,63.978889 
	C335.163269,64.292053 334.067780,64.605225 332.319275,65.215225 
	C317.828430,71.288887 308.261810,82.210526 302.291229,96.389366 
	C296.217010,110.814278 296.983093,125.576698 300.563843,140.518600 
	C304.093475,155.246948 311.368866,168.299332 319.388794,180.698029 
	C329.143585,195.778702 339.652588,210.504028 353.153534,222.712234 
	C358.106476,227.190918 365.485565,226.951385 369.939362,221.803467 
	C374.154236,216.931763 378.655884,212.256805 382.411804,207.048508 
	C396.255524,187.851669 409.995117,168.643799 417.332031,145.627716 
	C421.695465,131.939575 423.648071,118.659950 419.427826,104.510963 
	C412.596191,81.607056 398.134552,67.045990 374.452789,60.714039 
	C372.963226,60.784561 371.473633,60.855087 369.272858,60.897480 
	C368.561279,60.892952 367.849670,60.888424 366.901917,60.319637 
	C366.239990,59.960529 365.578094,59.601425 364.033081,59.190975 
	C361.379486,59.198826 358.725891,59.206676 355.332031,59.100922 
	C354.170502,59.690022 353.008972,60.279118 351.085327,60.861755 
	C350.070587,60.845654 349.055878,60.829552 347.468567,60.412178 
	C343.965729,61.590775 340.462891,62.769371 337.002167,63.997379 
	C337.002167,63.997379 336.966187,63.941868 336.258789,63.978889 
M470.806915,339.879028 
	C463.469971,338.374268 461.885712,339.144897 459.568268,345.870331 
	C458.774628,348.173492 457.651459,350.845673 458.160095,352.999451 
	C458.883118,356.061188 460.269714,359.992340 462.646332,361.396301 
	C466.187958,363.488464 469.583069,360.731293 471.721619,357.464294 
	C474.885742,352.630615 476.170990,345.166321 470.806915,339.879028 
M451.990417,187.530930 
	C449.356995,183.969238 445.610596,182.836929 442.003662,184.918045 
	C438.469208,186.957382 438.125793,190.787552 439.616180,194.606049 
	C439.915222,195.372147 440.018738,196.212448 440.284454,196.994034 
	C441.745483,201.290710 445.281982,201.966553 449.091553,201.735855 
	C453.067810,201.495056 454.288239,198.091614 454.562042,195.135742 
	C454.765991,192.933899 453.076569,190.556671 451.990417,187.530930 
M474.250183,267.069489 
	C474.161041,269.725891 474.105194,272.383881 473.975586,275.038330 
	C473.726654,280.138214 477.386444,281.499481 481.221191,281.985229 
	C484.946808,282.457153 487.888000,281.256531 488.807617,276.729614 
	C489.787476,271.906097 487.159485,269.202820 483.989258,266.686432 
	C480.963715,264.284943 477.669617,264.016937 474.250183,267.069489 
M442.535187,410.896637 
	C439.381378,410.252289 436.010376,408.602417 433.130127,409.224548 
	C429.723785,409.960266 428.857819,417.313293 431.170624,420.754303 
	C432.888336,423.309875 440.793549,424.634033 443.592682,422.834991 
	C446.618591,420.890167 446.391144,415.582458 442.535187,410.896637 
z"/>
<path fill="#1B2D36" opacity="1.000000" stroke="none" 
	d="
M58.194504,195.113983 
	C48.285355,207.258423 37.974007,219.102615 28.606255,231.651215 
	C22.194559,240.239990 18.605854,250.112854 20.064568,261.389008 
	C21.279173,270.778168 32.093231,280.997955 42.353767,283.758148 
	C47.992100,285.274994 53.802113,286.153625 60.058830,287.528564 
	C63.175278,288.177734 65.760979,288.949707 68.361107,289.001740 
	C79.907234,289.232910 91.457497,289.257690 103.375679,289.514801 
	C112.164131,288.708862 120.583176,287.745239 128.998428,286.833069 
	C128.994644,286.884460 128.892029,286.874390 129.315796,286.918823 
	C131.157501,286.947937 132.575439,286.932648 134.220764,286.746246 
	C134.689438,286.279999 134.930710,285.984894 135.290588,285.683105 
	C135.409180,285.676392 135.427658,285.913239 135.869476,285.936646 
	C138.188141,285.512939 140.064987,285.065857 141.947510,284.678833 
	C141.953201,284.738892 141.832672,284.744659 142.255203,284.814209 
	C145.455643,284.224243 148.233566,283.564758 151.002197,282.937561 
	C150.992920,282.969788 150.933411,282.938812 151.362366,282.978638 
	C155.937408,281.911377 160.083527,280.804321 164.284821,279.698181 
	C164.339996,279.699066 164.340912,279.809448 164.775208,279.850708 
	C167.448792,279.141602 169.688080,278.391174 171.920532,277.703857 
	C171.913696,277.766968 171.788345,277.746796 172.137009,277.793335 
	C173.328568,277.524902 174.171448,277.209961 174.995987,276.928406 
	C174.977631,276.961823 174.911377,276.924103 175.329514,276.963623 
	C180.150070,275.578888 184.552490,274.154602 188.945663,272.785675 
	C188.936417,272.841034 188.826569,272.817993 189.176544,272.853668 
	C190.349380,272.530151 191.172241,272.170959 191.978516,271.864136 
	C191.961945,271.916504 191.858002,271.880981 192.203949,271.896118 
	C193.350998,271.526703 194.152084,271.142120 194.936279,270.806458 
	C194.919373,270.855347 194.823166,270.817261 195.171402,270.856079 
	C196.333130,270.533691 197.146622,270.172455 197.947205,269.854156 
	C197.934280,269.897064 197.849472,269.868073 198.202545,269.883972 
	C199.355850,269.488953 200.156082,269.078064 201.250946,268.474487 
	C211.064880,264.552338 220.584198,260.822937 230.076385,257.065613 
	C230.049240,257.037720 230.051468,257.115540 230.428680,257.098633 
	C248.136887,248.494537 265.445648,239.861771 282.827820,231.379456 
	C284.928345,230.354431 287.425415,230.142120 289.996460,230.049744 
	C290.474915,230.847092 290.695648,231.147827 290.774658,231.743835 
	C290.716278,232.903046 290.799561,233.766937 290.637451,234.964813 
	C289.877594,236.274658 289.363159,237.250549 288.608093,238.298248 
	C288.084808,238.775223 287.802155,239.180374 287.564514,239.599091 
	C287.609497,239.612671 287.578735,239.523880 287.331696,239.605225 
	C286.761993,240.073685 286.439362,240.460800 285.788940,240.970520 
	C272.450928,249.137894 259.735352,257.713806 246.374252,265.126129 
	C208.870102,285.932404 169.376953,301.494690 126.799736,308.380798 
	C105.681404,311.796265 84.449936,312.863159 63.102676,311.175720 
	C54.799721,309.484009 46.157261,308.722321 38.285725,305.848816 
	C29.779724,302.743683 21.578838,298.283997 14.042897,293.226166 
	C9.176532,289.960022 5.744777,284.556335 1.335054,280.055298 
	C1.000000,267.312439 1.000000,254.624878 1.000000,241.468658 
	C2.085274,240.090591 3.648427,239.400726 4.182538,238.238113 
	C10.092795,225.373154 21.033827,216.611267 30.380802,206.675354 
	C35.275921,201.471786 42.171112,198.149719 48.821335,194.066101 
	C52.384594,194.474167 55.289551,194.794083 58.194504,195.113983 
z"/>
<path fill="#F98F3D" opacity="1.000000" stroke="none" 
	d="
M162.129471,116.169586 
	C162.129471,116.169586 162.478775,116.032066 163.007706,116.094254 
	C168.007004,114.081955 172.477371,112.007469 176.947739,109.932983 
	C176.947739,109.932976 176.998779,109.999680 177.374939,109.994019 
	C179.484833,109.304245 181.218567,108.620132 182.952286,107.936020 
	C182.952286,107.936012 183.000061,107.992867 183.389679,107.981094 
	C186.684219,107.409691 189.591965,106.864296 192.493546,106.287865 
	C203.121582,104.176491 213.755585,102.093376 224.363983,99.887306 
	C225.664658,99.616829 226.824127,98.667244 228.049026,98.032372 
	C231.051071,98.030373 234.053101,98.028366 237.798660,98.174545 
	C241.051865,98.197510 243.561569,98.072296 246.071259,97.947083 
	C249.734970,97.979332 253.398666,98.011589 257.811096,98.250153 
	C263.385406,98.958549 268.210999,99.460632 273.036621,99.962723 
	C274.086426,100.006119 275.136200,100.049515 276.756104,100.472626 
	C279.996002,101.837799 283.915894,102.100182 285.012238,103.995705 
	C286.319458,106.255737 285.206390,109.915657 285.114014,113.438141 
	C285.405731,120.708656 285.230194,127.583282 286.220551,134.285645 
	C286.869781,138.679596 289.205017,142.824417 290.785156,147.080811 
	C290.785156,147.080811 290.917725,147.504990 290.951996,148.131058 
	C292.671417,152.494171 294.356567,156.231216 296.041718,159.968277 
	C296.041718,159.968277 296.000000,160.000000 295.995422,160.385071 
	C296.477264,165.328964 297.730194,169.470764 302.065369,171.935715 
	C302.065369,171.935715 302.021118,171.992798 302.031799,172.334305 
	C302.712402,173.764969 303.382294,174.854111 304.052216,175.943253 
	C304.052216,175.943253 304.029053,175.986221 304.031738,176.336441 
	C304.709137,177.788422 305.383850,178.890182 306.058533,179.991943 
	C306.410278,180.020844 306.682404,180.183167 307.049194,180.922134 
	C307.387726,181.631699 307.586914,181.868698 307.821075,182.076324 
	C307.821075,182.076324 307.930450,182.490067 307.991913,183.041382 
	C308.727112,184.378967 309.400848,185.165253 310.074585,185.951538 
	C310.074585,185.951538 310.009644,186.000397 310.045593,186.306030 
	C310.735840,187.392456 311.390167,188.173264 312.044464,188.954071 
	C312.044464,188.954071 312.007843,188.997452 312.036743,189.317291 
	C312.730835,190.406860 313.396027,191.176575 314.061188,191.946289 
	C314.061188,191.946289 314.022034,192.002197 314.155640,192.178497 
	C314.497589,192.615356 314.753571,192.814850 315.057129,192.953247 
	C315.057129,192.953247 315.070129,192.973419 315.057312,193.340424 
	C316.055084,195.121262 317.065735,196.535080 318.076385,197.948914 
	C318.076385,197.948898 317.997803,197.961136 318.308533,198.316467 
	C318.841675,198.887558 319.064087,199.103317 319.286499,199.319061 
	C319.286499,199.319061 319.332428,199.199554 319.044739,199.526398 
	C311.169708,206.908417 303.543182,213.922211 296.019073,221.044189 
	C293.778229,223.165237 291.824677,225.589752 289.359955,227.901428 
	C285.576294,229.137726 282.003052,230.010452 278.797943,231.617401 
	C266.203766,237.931686 253.712402,244.451904 241.212326,250.952301 
	C237.443008,252.912445 233.769089,255.056000 230.051468,257.115540 
	C230.051468,257.115540 230.049240,257.037720 229.666656,257.024231 
	C226.559143,257.681030 223.771469,258.164062 221.119827,259.052917 
	C207.144989,263.737457 193.185089,268.468567 179.263901,273.309753 
	C175.099670,274.757904 171.076981,276.613037 166.939255,278.363098 
	C166.889069,278.444519 166.697830,278.447052 166.241638,278.348236 
	C164.300644,278.319489 162.788940,278.233582 161.335190,278.484009 
	C147.939575,280.791382 134.632523,283.919006 121.145226,285.308807 
	C105.015182,286.970947 88.740746,287.424225 72.514259,287.869293 
	C65.377129,288.065125 61.784355,284.079071 62.301018,277.016571 
	C63.437721,261.478607 64.442078,245.886444 69.772293,230.998459 
	C72.620476,223.043106 75.233070,215.003403 77.826180,206.785233 
	C77.474014,206.323532 77.247643,206.078354 77.021278,205.833176 
	C77.129593,205.299469 77.237907,204.765778 77.865707,203.873871 
	C78.601646,202.592438 78.818108,201.669205 79.034576,200.745972 
	C79.034569,200.745972 79.049957,200.502167 79.451431,200.304779 
	C81.380035,198.433487 83.169174,196.929688 84.386414,195.054642 
	C88.437233,188.814728 91.659691,181.929504 96.342667,176.230927 
	C104.857521,165.869476 114.220001,156.206482 123.166763,146.196609 
	C125.229668,143.888580 127.042183,141.356781 128.969925,138.927948 
	C128.969925,138.927948 128.995163,138.986298 129.330704,138.975800 
	C135.770340,134.286850 141.874435,129.608414 147.978531,124.929977 
	C147.978531,124.929977 147.994675,124.993629 148.185959,124.868423 
	C148.587021,124.475075 148.796814,124.206917 149.006592,123.938766 
	C149.006592,123.938766 149.004471,124.001953 149.357666,123.983215 
	C153.470688,121.623085 157.230484,119.281677 160.990295,116.940269 
	C160.990295,116.940269 160.995438,116.999222 161.191223,116.893570 
	C161.662796,116.615791 161.910278,116.409683 162.129471,116.169586 
M168.972809,169.996796 
	C168.972809,169.996796 168.904480,170.102051 169.286972,170.658096 
	C177.299377,175.577713 185.311783,180.497345 194.104950,185.896362 
	C185.406281,191.997604 177.672974,197.711975 169.599030,202.895782 
	C167.375763,204.323212 164.038757,204.920593 161.382385,204.579208 
	C155.960205,203.882401 150.633820,202.367188 145.304443,201.042358 
	C140.278412,199.792984 137.152145,202.083099 134.359924,206.545502 
	C140.893219,210.950363 147.339066,215.038406 153.448120,219.579529 
	C155.176559,220.864380 156.630020,223.355591 156.984482,225.496384 
	C158.071030,232.058472 158.431030,238.738113 159.385666,245.326843 
	C159.602829,246.825745 160.833939,249.058334 162.018829,249.373749 
	C165.799561,250.380203 170.672607,246.856659 171.636871,242.848938 
	C172.882904,237.670120 173.911560,232.438583 175.184647,227.266891 
	C175.564896,225.722153 176.038284,223.588364 177.168579,222.935318 
	C187.909668,216.729553 198.801590,210.784836 210.140320,204.493042 
	C210.588654,206.474655 210.889709,207.565018 211.078049,208.674500 
	C213.084656,220.494019 215.024094,232.325378 217.130585,244.126953 
	C217.387985,245.569016 218.226334,247.691772 219.292633,248.060257 
	C222.699020,249.237350 232.702744,241.791122 233.097931,238.030975 
	C234.734192,222.462036 236.177078,206.871017 238.032532,191.328888 
	C238.296722,189.115860 239.966263,186.474091 241.795715,185.152496 
	C248.133408,180.574173 254.948303,176.660339 261.339417,172.150452 
	C264.705078,169.775436 267.842316,166.933411 270.589478,163.861252 
	C274.076599,159.961655 274.174713,155.085159 271.671936,150.802032 
	C269.178253,146.534424 264.675293,145.247070 259.887451,146.137482 
	C257.136902,146.649002 254.308441,147.465820 251.868973,148.794876 
	C243.397491,153.410187 235.184219,158.507721 226.637222,162.970764 
	C224.311737,164.185089 220.919769,164.698914 218.422531,164.027328 
	C200.589233,159.231262 182.879242,153.979111 165.089066,149.018997 
	C158.899826,147.293350 151.038544,150.840088 147.116531,157.157471 
	C154.380676,161.472382 161.641129,165.785110 168.972809,169.996796 
z"/>
<path fill="#152E3B" opacity="1.000000" stroke="none" 
	d="
M442.795715,285.896088 
	C442.064423,301.966675 440.131683,317.888367 435.585907,333.343445 
	C431.654877,346.708527 426.741394,359.584686 419.920380,371.976379 
	C414.254822,382.268982 408.701935,392.578186 400.990265,401.266815 
	C391.168213,412.333221 380.695770,422.943512 369.605988,432.733490 
	C355.162689,445.483978 338.197937,454.465027 320.269714,461.404633 
	C296.648712,470.547821 272.086975,474.456177 246.759155,473.870483 
	C222.658264,473.313110 199.548492,467.997101 177.433304,458.794891 
	C157.852173,450.647095 140.398758,439.077728 124.266655,425.067627 
	C110.589226,413.189362 99.401146,399.452179 89.963982,384.393402 
	C82.921387,373.155609 77.961006,360.607178 72.199158,348.582123 
	C71.680672,347.500031 72.086090,345.975189 72.278580,343.973389 
	C74.720261,342.246002 76.932404,340.345917 79.173813,340.310791 
	C87.058830,340.187134 94.984146,341.267151 102.838020,340.845215 
	C114.415352,340.223206 126.093941,339.498749 137.455353,337.361298 
	C150.860046,334.839478 164.063583,331.073975 177.168655,327.216827 
	C182.695328,325.590179 187.747314,322.350677 193.076477,319.748169 
	C193.137878,319.652039 193.365372,319.669006 193.808884,319.747375 
	C196.036560,319.576385 197.989075,319.709167 199.575287,319.010406 
	C205.940628,316.206421 212.360397,313.448395 218.436127,310.087738 
	C223.832199,307.103027 228.800003,303.344055 233.968567,299.962097 
	C233.980286,299.997314 233.927612,299.944885 234.314178,299.960022 
	C243.764099,295.546295 252.699707,290.828644 261.918243,286.750580 
	C279.367920,279.031219 296.592560,270.513977 314.637329,264.513153 
	C331.519867,258.898804 349.207001,255.860336 367.056091,253.518158 
	C389.827667,250.530075 412.138275,252.981018 434.604034,255.133530 
	C438.104492,255.468918 439.839020,257.731384 440.025269,261.196838 
	C440.372650,267.660645 440.607697,274.133118 441.120361,280.583649 
	C441.263733,282.387451 442.215027,284.127045 442.795715,285.896088 
M405.045197,269.991333 
	C397.053833,270.058502 389.062469,270.125671 380.199554,270.073059 
	C354.285889,271.812347 328.730347,276.212067 304.940460,286.554352 
	C280.875488,297.016296 257.582977,309.324493 234.280273,321.454376 
	C197.745926,340.471863 159.790359,354.518616 118.273094,357.219574 
	C111.921341,357.632782 105.579758,358.202240 97.615463,358.826202 
	C104.253967,368.400116 110.086113,376.811157 116.071701,385.875824 
	C123.251938,393.907379 130.432175,401.938934 138.092850,410.507965 
	C141.587448,413.334930 144.895187,416.441925 148.618423,418.926208 
	C154.947220,423.148987 161.537643,426.979614 168.350983,431.572784 
	C180.622269,436.946045 192.893570,442.319305 205.948563,447.859100 
	C206.910782,448.101379 207.867401,448.369110 208.836075,448.582001 
	C221.089157,451.274750 233.238647,454.769745 246.741974,453.796692 
	C248.059723,453.905640 249.376007,454.085815 250.695450,454.113098 
	C281.579834,454.751831 310.205536,446.523346 336.619751,430.991974 
	C346.081146,425.428741 354.386261,417.899048 363.862549,411.043457 
	C372.640869,401.363281 381.419159,391.683075 390.689972,381.569183 
	C395.453064,373.412567 400.216156,365.255951 405.580383,356.713287 
	C409.313995,346.855804 413.047638,336.998291 416.960449,326.351349 
	C418.341522,318.268280 419.722626,310.185181 421.329285,301.599548 
	C421.323029,301.065308 421.316772,300.531097 421.583466,299.265625 
	C421.625763,298.493042 421.668060,297.720428 421.910187,296.080261 
	C422.116089,290.629974 422.464539,285.180450 422.494812,279.729187 
	C422.541168,271.383972 422.452087,271.342712 414.360870,270.543610 
	C411.577362,270.268707 408.768311,270.252838 405.045197,269.991333 
z"/>
<path fill="#F17324" opacity="1.000000" stroke="none" 
	d="
M193.365372,319.669006 
	C193.365372,319.669006 193.137878,319.652039 192.688477,319.772522 
	C191.607300,320.101257 190.965866,320.284363 190.345078,320.521454 
	C152.797607,334.861664 114.122025,341.700745 73.860146,338.145020 
	C72.525696,338.027130 71.125305,338.655823 69.755646,338.936523 
	C68.523972,335.698700 66.910614,332.548096 66.145943,329.203491 
	C64.849510,323.532959 64.088661,317.739929 63.102676,311.587067 
	C84.449936,312.863159 105.681404,311.796265 126.799736,308.380798 
	C169.376953,301.494690 208.870102,285.932404 246.374252,265.126129 
	C259.735352,257.713806 272.450928,249.137894 286.053741,240.926300 
	C286.957123,240.347610 287.267914,239.935745 287.578735,239.523865 
	C287.578735,239.523880 287.609497,239.612671 287.826111,239.546600 
	C288.311401,239.062485 288.580048,238.644455 288.848694,238.226440 
	C289.363159,237.250549 289.877594,236.274658 290.838501,234.880249 
	C291.162079,233.457336 291.039215,232.452942 290.916351,231.448547 
	C290.695648,231.147827 290.474915,230.847092 290.055847,229.777222 
	C289.818176,228.630463 289.778839,228.252853 289.739502,227.875244 
	C291.824677,225.589752 293.778229,223.165237 296.019073,221.044189 
	C303.543182,213.922211 311.169708,206.908417 319.103271,199.552322 
	C319.595062,199.631744 319.740631,200.012070 319.980957,200.804443 
	C320.403046,201.474091 320.730408,201.731674 321.057739,201.989273 
	C321.057739,201.989273 320.998657,201.992783 321.095398,202.194611 
	C321.346069,202.687576 321.546631,202.941971 321.793793,203.159622 
	C321.793793,203.159622 321.914459,203.524750 322.089539,203.934570 
	C322.535004,204.558441 322.805359,204.772476 323.075745,204.986526 
	C323.075745,204.986526 323.012238,204.982986 323.038483,205.295715 
	C323.718536,206.406906 324.372375,207.205353 325.026184,208.003799 
	C325.026184,208.003799 324.983215,208.011597 325.113098,208.205231 
	C325.451019,208.667786 325.712219,208.866989 326.026611,208.996460 
	C326.026611,208.996460 325.994141,209.007980 326.126465,209.203918 
	C326.471344,209.665039 326.736267,209.858536 327.053528,209.980362 
	C327.053528,209.980362 327.000519,209.999619 327.133972,210.188751 
	C327.477325,210.646973 327.740906,210.844421 328.058136,210.970215 
	C328.058136,210.970215 327.998993,210.988297 328.104492,211.198593 
	C328.371735,211.704483 328.578613,211.964127 328.830597,212.187820 
	C328.830597,212.187820 328.941376,212.541946 329.103912,212.945038 
	C329.529388,213.566528 329.792328,213.784912 330.055237,214.003311 
	C330.055237,214.003311 329.991425,214.009674 330.132690,214.190521 
	C330.539856,214.577301 330.805756,214.783218 331.071625,214.989151 
	C331.071625,214.989151 331.004944,214.993607 331.138367,215.178360 
	C331.538330,215.567841 331.804871,215.772552 332.071381,215.977280 
	C332.071381,215.977280 332.009399,215.989243 332.141815,216.175903 
	C332.537354,216.564789 332.800507,216.767014 333.063629,216.969254 
	C333.063629,216.969254 333.008636,216.949677 333.034424,217.282410 
	C333.719849,218.401611 334.379456,219.188095 335.039062,219.974564 
	C335.039062,219.974564 334.996887,219.998169 335.140076,220.177628 
	C335.487854,220.607956 335.732605,220.810211 336.017548,220.963852 
	C336.017548,220.963852 336.010529,220.986542 336.092773,221.305878 
	C337.127441,222.416916 338.079834,223.208618 339.032257,224.000336 
	C339.032257,224.000336 338.986145,224.013168 339.128235,224.199539 
	C339.532654,224.592148 339.794952,224.798401 340.057251,225.004639 
	C340.400299,225.023590 340.665558,225.177048 341.065521,225.907623 
	C341.543335,226.565933 341.808624,226.781616 342.073944,226.997314 
	C342.073944,226.997314 342.007050,226.994278 342.095032,227.262177 
	C342.803436,228.019821 343.423889,228.509583 344.044342,228.999329 
	C344.392395,229.041351 344.661194,229.209839 345.062256,229.935699 
	C345.481140,230.615295 345.728424,230.814270 346.015717,230.963577 
	C346.015717,230.963577 346.476013,231.076767 346.861084,231.314987 
	C347.476807,231.768295 347.744568,231.916168 348.049469,231.996796 
	C348.049469,231.996796 347.989227,232.005829 348.126770,232.191299 
	C348.526917,232.586990 348.789490,232.797211 349.052063,233.007446 
	C349.052063,233.007446 348.987762,233.013321 349.126404,233.192261 
	C349.525024,233.579727 349.784973,233.788269 350.044952,233.996811 
	C350.044952,233.996811 349.992340,234.006241 350.116943,234.318085 
	C352.707550,235.754288 355.071442,237.420898 357.657501,237.907928 
	C368.105774,239.875595 374.860687,233.541885 381.101227,226.631378 
	C382.784088,224.767838 383.677124,222.191025 384.932709,219.941620 
	C384.932709,219.941620 384.989532,219.988327 385.311523,219.956924 
	C386.404633,218.950424 387.175751,217.975311 387.946838,217.000214 
	C387.946838,217.000198 387.945801,216.940170 388.305939,216.871582 
	C391.095184,213.510986 393.524292,210.218994 395.953430,206.927017 
	C395.953430,206.927017 395.988037,206.984039 396.276184,206.874741 
	C397.023712,205.825455 397.483093,204.885452 397.942474,203.945450 
	C397.942474,203.945450 398.002289,203.991074 398.292816,203.882339 
	C399.043274,202.825226 399.503174,201.876862 399.963104,200.928482 
	C399.963104,200.928482 399.981018,200.990250 400.297546,200.920227 
	C402.392303,197.877380 404.170532,194.904556 405.948792,191.931717 
	C405.948792,191.931717 405.982574,191.994949 406.293823,191.920151 
	C409.018463,189.081680 411.431824,186.318024 413.930389,183.456787 
	C416.337250,186.543015 418.542175,189.370316 420.747101,192.197632 
	C420.747101,192.197617 420.905426,192.602158 420.949249,193.202393 
	C422.574982,196.932251 424.156921,200.061859 425.738831,203.191467 
	C425.738831,203.191483 425.882385,203.567886 425.920105,204.165192 
	C426.204346,205.896423 426.369781,207.055328 426.709900,208.160446 
	C430.274170,219.740082 434.017426,231.267181 437.401459,242.898926 
	C439.953217,251.670013 439.642242,251.875259 430.841797,252.006699 
	C429.844818,252.021576 428.849426,252.140732 427.909851,252.229462 
	C427.966370,252.247391 427.926788,252.359222 427.656311,252.069214 
	C426.290802,251.432983 425.218414,250.911362 424.097412,250.766617 
	C403.930420,248.162521 383.747650,248.270905 363.573914,250.646912 
	C362.027557,250.829041 360.574158,251.800293 358.713928,252.546478 
	C332.295746,256.757416 306.794006,262.958466 282.949493,274.450439 
	C266.365326,282.443268 250.251541,291.412079 233.927612,299.944885 
	C233.927612,299.944885 233.980286,299.997314 233.612015,300.005219 
	C219.950943,306.565063 206.658157,313.117035 193.365372,319.669006 
z"/>
<path fill="#172E3B" opacity="1.000000" stroke="none" 
	d="
M348.041138,60.813446 
	C349.055878,60.829552 350.070587,60.845654 351.832275,60.898178 
	C353.743591,60.361248 354.907928,59.787891 356.072296,59.214531 
	C358.725891,59.206676 361.379486,59.198826 364.605896,59.475796 
	C365.831818,60.135040 366.484955,60.509464 367.138092,60.883896 
	C367.849670,60.888424 368.561279,60.892952 369.894775,61.123722 
	C371.991089,61.300400 373.465424,61.250835 374.939789,61.201271 
	C398.134552,67.045990 412.596191,81.607056 419.427826,104.510963 
	C423.648071,118.659950 421.695465,131.939575 417.332031,145.627716 
	C409.995117,168.643799 396.255524,187.851669 382.411804,207.048508 
	C378.655884,212.256805 374.154236,216.931763 369.939362,221.803467 
	C365.485565,226.951385 358.106476,227.190918 353.153534,222.712234 
	C339.652588,210.504028 329.143585,195.778702 319.388794,180.698029 
	C311.368866,168.299332 304.093475,155.246948 300.563843,140.518600 
	C296.983093,125.576698 296.217010,110.814278 302.291229,96.389366 
	C308.261810,82.210526 317.828430,71.288887 332.880066,65.269318 
	C334.615936,64.862900 335.791077,64.402390 336.966187,63.941872 
	C336.966187,63.941868 337.002167,63.997379 337.386200,63.989410 
	C338.848755,63.984760 339.927246,63.988083 341.032745,64.044106 
	C341.059723,64.096809 340.991455,64.005798 341.267334,63.788849 
	C343.709198,62.652412 345.875153,61.732929 348.041138,60.813446 
M344.564819,150.236572 
	C344.783325,150.423187 345.009247,150.600357 345.470734,151.242554 
	C345.619598,151.560364 345.768433,151.878174 346.086731,152.790970 
	C348.195892,156.808777 351.772247,155.225235 355.797729,155.147263 
	C358.484009,155.391327 361.170319,155.635391 364.460358,155.795090 
	C364.991638,155.244263 365.522919,154.693451 366.846466,154.080872 
	C367.510254,154.027573 368.220154,154.109421 368.830994,153.900955 
	C379.869293,150.133423 391.944611,135.942703 392.240753,123.572418 
	C392.588165,109.056526 381.889679,93.387512 367.532806,88.382904 
	C356.146118,84.413666 338.954285,90.910835 331.945618,104.423889 
	C328.668365,110.742599 325.082703,117.230896 326.989990,124.669876 
	C329.513794,134.513397 333.502655,143.671829 341.850861,150.253632 
	C341.837830,150.542450 341.824829,150.831268 341.811798,151.120087 
	C342.214722,150.760925 342.617676,150.401764 343.619995,149.972504 
	C343.821136,149.975433 344.022247,149.978363 344.564819,150.236572 
z"/>
<path fill="#362921" opacity="1.000000" stroke="none" 
	d="
M234.314178,299.960022 
	C250.251541,291.412079 266.365326,282.443268 282.949493,274.450439 
	C306.794006,262.958466 332.295746,256.757416 359.155365,252.553024 
	C364.577637,251.926285 369.201874,250.959015 373.810822,251.027115 
	C391.852112,251.293655 409.888550,251.887207 427.926788,252.359222 
	C427.926788,252.359222 427.966370,252.247391 428.223480,252.472214 
	C432.619202,253.064560 436.757843,253.432083 440.896484,253.799622 
	C441.555786,264.195435 442.215118,274.591278 442.835083,285.441589 
	C442.215027,284.127045 441.263733,282.387451 441.120361,280.583649 
	C440.607697,274.133118 440.372650,267.660645 440.025269,261.196838 
	C439.839020,257.731384 438.104492,255.468918 434.604034,255.133530 
	C412.138275,252.981018 389.827667,250.530075 367.056091,253.518158 
	C349.207001,255.860336 331.519867,258.898804 314.637329,264.513153 
	C296.592560,270.513977 279.367920,279.031219 261.918243,286.750580 
	C252.699707,290.828644 243.764099,295.546295 234.314178,299.960022 
z"/>
<path fill="#CF894E" opacity="1.000000" stroke="none" 
	d="
M77.951973,207.001770 
	C75.233070,215.003403 72.620476,223.043106 69.772293,230.998459 
	C64.442078,245.886444 63.437721,261.478607 62.301018,277.016571 
	C61.784355,284.079071 65.377129,288.065125 72.514259,287.869293 
	C88.740746,287.424225 105.015182,286.970947 121.145226,285.308807 
	C134.632523,283.919006 147.939575,280.791382 161.335190,278.484009 
	C162.788940,278.233582 164.300644,278.319489 165.944962,278.530579 
	C165.516602,279.144287 164.928757,279.476868 164.340912,279.809448 
	C164.340912,279.809448 164.339996,279.699066 163.842834,279.707581 
	C159.208252,280.790344 155.070831,281.864594 150.933411,282.938812 
	C150.933411,282.938812 150.992920,282.969788 150.592072,282.877686 
	C147.405029,283.438629 144.618851,284.091644 141.832672,284.744659 
	C141.832672,284.744659 141.953201,284.738892 141.520081,284.623474 
	C139.200531,284.976440 137.314087,285.444855 135.427658,285.913239 
	C135.427658,285.913239 135.409180,285.676392 134.986725,285.668427 
	C134.374435,285.727173 134.184570,285.793884 133.609314,285.836792 
	C131.779968,286.166748 130.335999,286.520569 128.892029,286.874390 
	C128.892029,286.874390 128.994644,286.884460 128.543182,286.773926 
	C119.729912,287.561279 111.368088,288.459198 103.006264,289.357117 
	C91.457497,289.257690 79.907234,289.232910 68.361107,289.001740 
	C65.760979,288.949707 63.175278,288.177734 60.393555,287.415863 
	C60.468239,282.359650 61.072826,277.614532 60.930962,272.891785 
	C60.543072,259.978851 63.000240,247.427277 66.207962,235.115311 
	C68.642609,225.770569 72.676056,216.842377 76.376823,207.361481 
	C77.154358,206.996658 77.553169,206.999222 77.951973,207.001770 
z"/>
<path fill="#1C2D38" opacity="1.000000" stroke="none" 
	d="
M471.145111,340.025238 
	C476.170990,345.166321 474.885742,352.630615 471.721619,357.464294 
	C469.583069,360.731293 466.187958,363.488464 462.646332,361.396301 
	C460.269714,359.992340 458.883118,356.061188 458.160095,352.999451 
	C457.651459,350.845673 458.774628,348.173492 459.568268,345.870331 
	C461.885712,339.144897 463.469971,338.374268 471.145111,340.025238 
z"/>
<path fill="#362921" opacity="1.000000" stroke="none" 
	d="
M69.831757,339.285919 
	C71.125305,338.655823 72.525696,338.027130 73.860146,338.145020 
	C114.122025,341.700745 152.797607,334.861664 190.345078,320.521454 
	C190.965866,320.284363 191.607300,320.101257 192.627075,319.868652 
	C187.747314,322.350677 182.695328,325.590179 177.168655,327.216827 
	C164.063583,331.073975 150.860046,334.839478 137.455353,337.361298 
	C126.093941,339.498749 114.415352,340.223206 102.838020,340.845215 
	C94.984146,341.267151 87.058830,340.187134 79.173813,340.310791 
	C76.932404,340.345917 74.720261,342.246002 72.292152,343.549561 
	C71.362358,342.417267 70.635109,341.026306 69.831757,339.285919 
z"/>
<path fill="#21303A" opacity="1.000000" stroke="none" 
	d="
M452.110413,187.894241 
	C453.076569,190.556671 454.765991,192.933899 454.562042,195.135742 
	C454.288239,198.091614 453.067810,201.495056 449.091553,201.735855 
	C445.281982,201.966553 441.745483,201.290710 440.284454,196.994034 
	C440.018738,196.212448 439.915222,195.372147 439.616180,194.606049 
	C438.125793,190.787552 438.469208,186.957382 442.003662,184.918045 
	C445.610596,182.836929 449.356995,183.969238 452.110413,187.894241 
z"/>
<path fill="#22303B" opacity="1.000000" stroke="none" 
	d="
M474.308014,266.686310 
	C477.669617,264.016937 480.963715,264.284943 483.989258,266.686432 
	C487.159485,269.202820 489.787476,271.906097 488.807617,276.729614 
	C487.888000,281.256531 484.946808,282.457153 481.221191,281.985229 
	C477.386444,281.499481 473.726654,280.138214 473.975586,275.038330 
	C474.105194,272.383881 474.161041,269.725891 474.308014,266.686310 
z"/>
<path fill="#202D39" opacity="1.000000" stroke="none" 
	d="
M442.819275,411.157349 
	C446.391144,415.582458 446.618591,420.890167 443.592682,422.834991 
	C440.793549,424.634033 432.888336,423.309875 431.170624,420.754303 
	C428.857819,417.313293 429.723785,409.960266 433.130127,409.224548 
	C436.010376,408.602417 439.381378,410.252289 442.819275,411.157349 
z"/>
<path fill="#DA9457" opacity="1.000000" stroke="none" 
	d="
M128.615463,138.962387 
	C127.042183,141.356781 125.229668,143.888580 123.166763,146.196609 
	C114.220001,156.206482 104.857521,165.869476 96.342667,176.230927 
	C91.659691,181.929504 88.437233,188.814728 84.386414,195.054642 
	C83.169174,196.929688 81.380035,198.433487 79.510201,200.197693 
	C84.413971,191.623001 89.227577,182.656464 95.005539,174.361664 
	C104.322845,160.985825 115.056946,148.790955 128.615463,138.962387 
z"/>
<path fill="#D4793E" opacity="1.000000" stroke="none" 
	d="
M440.901001,253.388855 
	C436.757843,253.432083 432.619202,253.064560 428.166931,252.454285 
	C428.849426,252.140732 429.844818,252.021576 430.841797,252.006699 
	C439.642242,251.875259 439.953217,251.670013 437.401459,242.898926 
	C434.017426,231.267181 430.274170,219.740082 426.709900,208.160446 
	C426.369781,207.055328 426.204346,205.896423 425.950928,204.364227 
	C428.192352,208.675125 431.166412,213.182510 432.542969,218.134018 
	C435.740265,229.634781 438.166656,241.349869 440.901001,253.388855 
z"/>
<path fill="#D78A4A" opacity="1.000000" stroke="none" 
	d="
M227.894623,97.700195 
	C226.824127,98.667244 225.664658,99.616829 224.363983,99.887306 
	C213.755585,102.093376 203.121582,104.176491 192.493546,106.287865 
	C189.591965,106.864296 186.684219,107.409691 183.358643,107.960945 
	C190.949707,105.323128 198.842529,102.205505 207.010147,100.216064 
	C213.751465,98.574036 220.817871,98.266754 227.894623,97.700195 
z"/>
<path fill="#D4793E" opacity="1.000000" stroke="none" 
	d="
M384.608704,220.033157 
	C383.677124,222.191025 382.784088,224.767838 381.101227,226.631378 
	C374.860687,233.541885 368.105774,239.875595 357.657501,237.907928 
	C355.071442,237.420898 352.707550,235.754288 350.124756,234.292511 
	C354.030426,234.672607 358.084503,236.078995 362.065430,235.895752 
	C365.420776,235.741287 369.254395,234.456940 371.874237,232.397812 
	C376.418976,228.825790 380.189484,224.268692 384.608704,220.033157 
z"/>
<path fill="#DE8645" opacity="1.000000" stroke="none" 
	d="
M290.881104,146.678406 
	C289.205017,142.824417 286.869781,138.679596 286.220551,134.285645 
	C285.230194,127.583282 285.405731,120.708656 285.397095,113.443298 
	C286.089111,112.981979 286.470276,112.984543 286.851471,112.987106 
	C286.522614,124.294586 287.487366,135.441742 290.881104,146.678406 
z"/>
<path fill="#D4793E" opacity="1.000000" stroke="none" 
	d="
M420.845825,191.819550 
	C418.542175,189.370316 416.337250,186.543015 413.930389,183.456787 
	C411.431824,186.318024 409.018463,189.081680 406.262604,191.902542 
	C407.534637,188.830460 408.800568,185.443115 410.868805,182.649811 
	C412.673218,180.212784 415.327698,179.757721 417.064697,183.149002 
	C418.455017,185.863449 419.658234,188.673721 420.845825,191.819550 
z"/>
<path fill="#DA9457" opacity="1.000000" stroke="none" 
	d="
M147.612427,124.977386 
	C141.874435,129.608414 135.770340,134.286850 129.301056,138.964340 
	C135.039368,134.317200 141.142853,129.671005 147.612427,124.977386 
z"/>
<path fill="#D68546" opacity="1.000000" stroke="none" 
	d="
M286.923523,112.579514 
	C286.470276,112.984543 286.089111,112.981979 285.424866,112.974274 
	C285.206390,109.915657 286.319458,106.255737 285.012238,103.995705 
	C283.915894,102.100182 279.996002,101.837799 277.144135,100.542496 
	C281.441803,99.706039 286.050995,98.739182 288.638458,103.247337 
	C288.037598,106.511391 287.516571,109.341660 286.923523,112.579514 
z"/>
<path fill="#2C3137" opacity="1.000000" stroke="none" 
	d="
M58.472633,194.925323 
	C55.289551,194.794083 52.384594,194.474167 49.177116,194.044250 
	C50.650394,190.876953 53.286846,189.517792 56.735916,190.389832 
	C58.935623,190.945984 60.952805,191.963394 58.472633,194.925323 
z"/>
<path fill="#D78A4A" opacity="1.000000" stroke="none" 
	d="
M176.564575,109.975800 
	C172.477371,112.007469 168.007004,114.081955 163.194977,116.081482 
	C167.296021,114.010559 171.738724,112.014587 176.564575,109.975800 
z"/>
<path fill="#D68546" opacity="1.000000" stroke="none" 
	d="
M272.822144,99.621529 
	C268.210999,99.460632 263.385406,98.958549 258.267670,98.211540 
	C262.852936,98.404526 267.730316,98.842430 272.822144,99.621529 
z"/>
<path fill="#D4793E" opacity="1.000000" stroke="none" 
	d="
M395.588348,206.938812 
	C393.524292,210.218994 391.095184,213.510986 388.335938,216.872910 
	C390.411591,213.612106 392.817444,210.281357 395.588348,206.938812 
z"/>
<path fill="#DA9457" opacity="1.000000" stroke="none" 
	d="
M160.620239,116.964058 
	C157.230484,119.281677 153.470688,121.623085 149.327179,123.974922 
	C152.712372,121.652855 156.481293,119.320351 160.620239,116.964058 
z"/>
<path fill="#DE8645" opacity="1.000000" stroke="none" 
	d="
M302.045135,171.563354 
	C297.730194,169.470764 296.477264,165.328964 296.014862,160.367828 
	C298.034180,163.707352 300.029541,167.449173 302.045135,171.563354 
z"/>
<path fill="#DE8645" opacity="1.000000" stroke="none" 
	d="
M296.034058,159.580307 
	C294.356567,156.231216 292.671417,152.494171 290.993103,148.349426 
	C292.675446,151.691925 294.350891,155.442123 296.034058,159.580307 
z"/>
<path fill="#D4793E" opacity="1.000000" stroke="none" 
	d="
M405.618439,192.045135 
	C404.170532,194.904556 402.392303,197.877380 400.267029,200.910004 
	C401.709381,198.032715 403.498718,195.095627 405.618439,192.045135 
z"/>
<path fill="#D4793E" opacity="1.000000" stroke="none" 
	d="
M425.839539,202.811661 
	C424.156921,200.061859 422.574982,196.932251 420.989075,193.415924 
	C422.636780,196.163437 424.288483,199.297653 425.839539,202.811661 
z"/>
<path fill="#151E26" opacity="1.000000" stroke="none" 
	d="
M347.754852,60.612812 
	C345.875153,61.732929 343.709198,62.652412 341.271606,63.785923 
	C341.000000,63.999950 341.005768,63.991405 341.005768,63.991405 
	C339.927246,63.988083 338.848755,63.984760 337.365143,63.964703 
	C340.462891,62.769371 343.965729,61.590775 347.754852,60.612812 
z"/>
<path fill="#D78A4A" opacity="1.000000" stroke="none" 
	d="
M245.856369,97.602509 
	C243.561569,98.072296 241.051865,98.197510 238.246155,98.128189 
	C240.513931,97.708420 243.077698,97.483185 245.856369,97.602509 
z"/>
<path fill="#D78A4A" opacity="1.000000" stroke="none" 
	d="
M182.561218,107.966331 
	C181.218567,108.620132 179.484833,109.304245 177.348450,109.960289 
	C178.687241,109.287033 180.428711,108.641838 182.561218,107.966331 
z"/>
<path fill="#151E26" opacity="1.000000" stroke="none" 
	d="
M374.696289,60.957657 
	C373.465424,61.250835 371.991089,61.300400 370.250397,61.137787 
	C371.473633,60.855087 372.963226,60.784561 374.696289,60.957657 
z"/>
<path fill="#DE8645" opacity="1.000000" stroke="none" 
	d="
M318.052826,197.599792 
	C317.065735,196.535080 316.055084,195.121262 315.066010,193.330933 
	C316.068115,194.386505 317.048706,195.818604 318.052826,197.599792 
z"/>
<path fill="#151E26" opacity="1.000000" stroke="none" 
	d="
M355.702148,59.157730 
	C354.907928,59.787891 353.743591,60.361248 352.213318,60.901409 
	C353.008972,60.279118 354.170502,59.690022 355.702148,59.157730 
z"/>
<path fill="#D4793E" opacity="1.000000" stroke="none" 
	d="
M387.624634,217.111359 
	C387.175751,217.975311 386.404633,218.950424 385.281006,219.930847 
	C385.719788,219.031616 386.511078,218.127060 387.624634,217.111359 
z"/>
<path fill="#D4773A" opacity="1.000000" stroke="none" 
	d="
M339.006348,223.643097 
	C338.079834,223.208618 337.127441,222.416916 336.104187,221.303375 
	C337.015686,221.749649 337.998047,222.517746 339.006348,223.643097 
z"/>
<path fill="#151E26" opacity="1.000000" stroke="none" 
	d="
M336.612488,63.960381 
	C335.791077,64.402390 334.615936,64.862900 333.206543,65.120903 
	C334.067780,64.605225 335.163269,64.292053 336.612488,63.960381 
z"/>
<path fill="#DE8645" opacity="1.000000" stroke="none" 
	d="
M304.028320,175.599548 
	C303.382294,174.854111 302.712402,173.764969 302.061157,172.312653 
	C302.721344,173.051620 303.362854,174.153717 304.028320,175.599548 
z"/>
<path fill="#DE8645" opacity="1.000000" stroke="none" 
	d="
M306.023865,179.646729 
	C305.383850,178.890182 304.709137,177.788422 304.053009,176.324127 
	C304.710785,177.074890 305.350006,178.188202 306.023865,179.646729 
z"/>
<path fill="#D4773A" opacity="1.000000" stroke="none" 
	d="
M325.016541,207.666595 
	C324.372375,207.205353 323.718536,206.406906 323.057159,205.269958 
	C323.702026,205.730789 324.354462,206.530090 325.016541,207.666595 
z"/>
<path fill="#D4793E" opacity="1.000000" stroke="none" 
	d="
M397.620239,204.020599 
	C397.483093,204.885452 397.023712,205.825455 396.243896,206.866394 
	C396.381622,206.010162 396.839783,205.052963 397.620239,204.020599 
z"/>
<path fill="#D4793E" opacity="1.000000" stroke="none" 
	d="
M399.651947,201.037033 
	C399.503174,201.876862 399.043274,202.825226 398.259766,203.865875 
	C398.404388,203.020630 398.872589,202.083115 399.651947,201.037033 
z"/>
<path fill="#DE8645" opacity="1.000000" stroke="none" 
	d="
M314.044678,191.615143 
	C313.396027,191.176575 312.730835,190.406860 312.059875,189.300079 
	C312.712128,189.736679 313.370178,190.510345 314.044678,191.615143 
z"/>
<path fill="#DE8645" opacity="1.000000" stroke="none" 
	d="
M312.028931,188.622223 
	C311.390167,188.173264 310.735840,187.392456 310.070007,186.273697 
	C310.710083,186.720627 311.361725,187.505508 312.028931,188.622223 
z"/>
<path fill="#DE8645" opacity="1.000000" stroke="none" 
	d="
M310.050598,185.615646 
	C309.400848,185.165253 308.727112,184.378967 308.034668,183.251038 
	C308.686188,183.699524 309.356384,184.489639 310.050598,185.615646 
z"/>
<path fill="#D4773A" opacity="1.000000" stroke="none" 
	d="
M335.022064,219.640839 
	C334.379456,219.188095 333.719849,218.401611 333.063660,217.277832 
	C333.713074,217.729385 334.359070,218.518250 335.022064,219.640839 
z"/>
<path fill="#151E26" opacity="1.000000" stroke="none" 
	d="
M367.020020,60.601761 
	C366.484955,60.509464 365.831818,60.135040 365.047424,59.501465 
	C365.578094,59.601425 366.239990,59.960529 367.020020,60.601761 
z"/>
<path fill="#D4773A" opacity="1.000000" stroke="none" 
	d="
M344.020691,228.643372 
	C343.423889,228.509583 342.803436,228.019821 342.101135,227.229263 
	C342.678558,227.381439 343.337830,227.834427 344.020691,228.643372 
z"/>
<path fill="#DA9457" opacity="1.000000" stroke="none" 
	d="
M78.689270,200.908447 
	C78.818108,201.669205 78.601646,202.592438 78.117302,203.755951 
	C78.014267,203.021118 78.179115,202.046005 78.689270,200.908447 
z"/>
<path fill="#DA9457" opacity="1.000000" stroke="none" 
	d="
M77.826180,206.785233 
	C77.553169,206.999222 77.154358,206.996658 76.456055,206.989105 
	C76.273315,206.669769 76.390083,206.355423 76.764061,205.937134 
	C77.247643,206.078354 77.474014,206.323532 77.826180,206.785233 
z"/>
<path fill="#DA9457" opacity="1.000000" stroke="none" 
	d="
M148.731384,123.996475 
	C148.796814,124.206917 148.587021,124.475075 148.153183,124.870415 
	C148.104813,124.683136 148.280487,124.368668 148.731384,123.996475 
z"/>
<path fill="#D4773A" opacity="1.000000" stroke="none" 
	d="
M345.944580,230.715973 
	C345.728424,230.814270 345.481140,230.615295 345.141052,230.167084 
	C345.296692,230.134476 345.585052,230.301422 345.944580,230.715973 
z"/>
<path fill="#DE8645" opacity="1.000000" stroke="none" 
	d="
M307.885315,181.800415 
	C307.586914,181.868698 307.387726,181.631699 307.139099,181.149689 
	C307.352997,181.130844 307.651276,181.327667 307.885315,181.800415 
z"/>
<path fill="#D4773A" opacity="1.000000" stroke="none" 
	d="
M332.010437,215.705948 
	C331.804871,215.772552 331.538330,215.567841 331.140808,215.145020 
	C331.323029,215.096161 331.636261,215.265381 332.010437,215.705948 
z"/>
<path fill="#D4773A" opacity="1.000000" stroke="none" 
	d="
M333.008911,216.698914 
	C332.800507,216.767014 332.537354,216.564789 332.148376,216.145020 
	C332.333099,216.094528 332.643677,216.261551 333.008911,216.698914 
z"/>
<path fill="#D4773A" opacity="1.000000" stroke="none" 
	d="
M341.998352,226.730530 
	C341.808624,226.781616 341.543335,226.565933 341.138000,226.133392 
	C341.306274,226.098938 341.614502,226.281357 341.998352,226.730530 
z"/>
<path fill="#D4773A" opacity="1.000000" stroke="none" 
	d="
M335.946960,220.717072 
	C335.732605,220.810211 335.487854,220.607956 335.152039,220.156555 
	C335.306000,220.127441 335.591187,220.298874 335.946960,220.717072 
z"/>
<path fill="#D78A4A" opacity="1.000000" stroke="none" 
	d="
M161.850754,116.139000 
	C161.910278,116.409683 161.662796,116.615791 161.164368,116.881180 
	C161.151810,116.685760 161.361923,116.397087 161.850754,116.139000 
z"/>
<path fill="#D4773A" opacity="1.000000" stroke="none" 
	d="
M339.979004,224.745316 
	C339.794952,224.798401 339.532654,224.592148 339.131409,224.175812 
	C339.295197,224.139160 339.597992,224.312576 339.979004,224.745316 
z"/>
<path fill="#D4773A" opacity="1.000000" stroke="none" 
	d="
M327.997498,210.705170 
	C327.740906,210.844421 327.477325,210.646973 327.142578,210.161896 
	C327.324097,210.110657 327.630463,210.275391 327.997498,210.705170 
z"/>
<path fill="#D4773A" opacity="1.000000" stroke="none" 
	d="
M330.991425,214.728760 
	C330.805756,214.783218 330.539856,214.577301 330.134949,214.158539 
	C330.301025,214.119919 330.606140,214.294144 330.991425,214.728760 
z"/>
<path fill="#D4793E" opacity="1.000000" stroke="none" 
	d="
M347.978424,231.727570 
	C347.744568,231.916168 347.476807,231.768295 347.088074,231.383118 
	C347.255798,231.294800 347.581604,231.376572 347.978424,231.727570 
z"/>
<path fill="#D4793E" opacity="1.000000" stroke="none" 
	d="
M348.975647,232.746979 
	C348.789490,232.797211 348.526917,232.586990 348.130310,232.161041 
	C348.297241,232.125717 348.598236,232.306107 348.975647,232.746979 
z"/>
<path fill="#DE8645" opacity="1.000000" stroke="none" 
	d="
M314.999298,192.690857 
	C314.753571,192.814850 314.497589,192.615356 314.161743,192.145050 
	C314.336639,192.099701 314.639038,192.264084 314.999298,192.690857 
z"/>
<path fill="#D4773A" opacity="1.000000" stroke="none" 
	d="
M319.251892,199.066223 
	C319.064087,199.103317 318.841675,198.887558 318.343506,198.297058 
	C318.450958,198.219345 318.834137,198.516373 319.251892,199.066223 
z"/>
<path fill="#D4793E" opacity="1.000000" stroke="none" 
	d="
M349.973175,233.734985 
	C349.784973,233.788269 349.525024,233.579727 349.128082,233.160004 
	C349.294556,233.123611 349.597961,233.298386 349.973175,233.734985 
z"/>
<path fill="#D4773A" opacity="1.000000" stroke="none" 
	d="
M320.938171,201.676178 
	C320.730408,201.731674 320.403046,201.474091 319.847473,200.993347 
	C320.019012,200.967834 320.418793,201.165466 320.938171,201.676178 
z"/>
<path fill="#D4773A" opacity="1.000000" stroke="none" 
	d="
M321.856995,202.873032 
	C321.546631,202.941971 321.346069,202.687576 321.108398,202.168045 
	C321.323212,202.155243 321.621704,202.370850 321.856995,202.873032 
z"/>
<path fill="#D4773A" opacity="1.000000" stroke="none" 
	d="
M322.999359,204.717987 
	C322.805359,204.772476 322.535004,204.558441 322.126282,204.123322 
	C322.299591,204.084641 322.611298,204.267044 322.999359,204.717987 
z"/>
<path fill="#D4773A" opacity="1.000000" stroke="none" 
	d="
M329.976166,213.741226 
	C329.792328,213.784912 329.529388,213.566528 329.130249,213.128693 
	C329.295044,213.099213 329.596069,213.289185 329.976166,213.741226 
z"/>
<path fill="#D4773A" opacity="1.000000" stroke="none" 
	d="
M328.899109,211.890717 
	C328.578613,211.964127 328.371735,211.704483 328.124481,211.174973 
	C328.348511,211.158585 328.658081,211.376099 328.899109,211.890717 
z"/>
<path fill="#D4773A" opacity="1.000000" stroke="none" 
	d="
M325.953278,208.741547 
	C325.712219,208.866989 325.451019,208.667786 325.117615,208.183868 
	C325.288147,208.141464 325.584045,208.314056 325.953278,208.741547 
z"/>
<path fill="#D4773A" opacity="1.000000" stroke="none" 
	d="
M326.984192,209.720093 
	C326.736267,209.858536 326.471344,209.665039 326.130493,209.187164 
	C326.306458,209.136261 326.610657,209.298035 326.984192,209.720093 
z"/>
<path fill="#CF894E" opacity="1.000000" stroke="none" 
	d="
M289.359955,227.901428 
	C289.778839,228.252853 289.818176,228.630463 289.798096,229.280594 
	C287.425415,230.142120 284.928345,230.354431 282.827820,231.379456 
	C265.445648,239.861771 248.136887,248.494537 230.428680,257.098633 
	C233.769089,255.056000 237.443008,252.912445 241.212326,250.952301 
	C253.712402,244.451904 266.203766,237.931686 278.797943,231.617401 
	C282.003052,230.010452 285.576294,229.137726 289.359955,227.901428 
z"/>
<path fill="#CF894E" opacity="1.000000" stroke="none" 
	d="
M166.989441,278.281738 
	C171.076981,276.613037 175.099670,274.757904 179.263901,273.309753 
	C193.185089,268.468567 207.144989,263.737457 221.119827,259.052917 
	C223.771469,258.164062 226.559143,257.681030 229.693787,257.052155 
	C220.584198,260.822937 211.064880,264.552338 200.910355,268.510925 
	C199.466599,269.116089 198.658035,269.492096 197.849472,269.868103 
	C197.849472,269.868073 197.934280,269.897064 197.607635,269.867065 
	C196.461700,270.163788 195.642441,270.490509 194.823166,270.817261 
	C194.823166,270.817261 194.919373,270.855347 194.594299,270.820282 
	C193.465485,271.150452 192.661743,271.515717 191.858002,271.880981 
	C191.858002,271.880981 191.961945,271.916504 191.630798,271.854492 
	C190.475281,272.134308 189.650925,272.476166 188.826569,272.817993 
	C188.826569,272.817993 188.936417,272.841034 188.541229,272.793793 
	C183.734497,274.139069 179.322937,275.531586 174.911377,276.924103 
	C174.911377,276.924103 174.977631,276.961823 174.649826,276.895020 
	C173.477463,277.134399 172.632904,277.440582 171.788345,277.746796 
	C171.788345,277.746796 171.913696,277.766968 171.502182,277.710846 
	C169.723602,277.863708 168.356522,278.072723 166.989441,278.281738 
z"/>
<path fill="#392715" opacity="1.000000" stroke="none" 
	d="
M103.375679,289.514801 
	C111.368088,288.459198 119.729912,287.561279 128.546967,286.722504 
	C120.583176,287.745239 112.164131,288.708862 103.375679,289.514801 
z"/>
<path fill="#372718" opacity="1.000000" stroke="none" 
	d="
M175.329514,276.963623 
	C179.322937,275.531586 183.734497,274.139069 188.550476,272.738434 
	C184.552490,274.154602 180.150070,275.578888 175.329514,276.963623 
z"/>
<path fill="#372718" opacity="1.000000" stroke="none" 
	d="
M151.362366,282.978638 
	C155.070831,281.864594 159.208252,280.790344 163.787659,279.706696 
	C160.083527,280.804321 155.937408,281.911377 151.362366,282.978638 
z"/>
<path fill="#372718" opacity="1.000000" stroke="none" 
	d="
M142.255203,284.814209 
	C144.618851,284.091644 147.405029,283.438629 150.601349,282.845459 
	C148.233566,283.564758 145.455643,284.224243 142.255203,284.814209 
z"/>
<path fill="#372718" opacity="1.000000" stroke="none" 
	d="
M166.939255,278.363129 
	C168.356522,278.072723 169.723602,277.863708 171.509003,277.647736 
	C169.688080,278.391174 167.448792,279.141602 164.775208,279.850708 
	C164.928757,279.476868 165.516602,279.144287 166.401154,278.629395 
	C166.697830,278.447052 166.889069,278.444519 166.939255,278.363129 
z"/>
<path fill="#CF894E" opacity="1.000000" stroke="none" 
	d="
M290.774658,231.743835 
	C291.039215,232.452942 291.162079,233.457336 291.083923,234.546295 
	C290.799561,233.766937 290.716278,232.903046 290.774658,231.743835 
z"/>
<path fill="#372718" opacity="1.000000" stroke="none" 
	d="
M135.869476,285.936646 
	C137.314087,285.444855 139.200531,284.976440 141.514389,284.563416 
	C140.064987,285.065857 138.188141,285.512939 135.869476,285.936646 
z"/>
<path fill="#392715" opacity="1.000000" stroke="none" 
	d="
M129.315796,286.918823 
	C130.335999,286.520569 131.779968,286.166748 133.609589,286.100983 
	C133.994629,286.565125 133.994019,286.741272 133.993393,286.917389 
	C132.575439,286.932648 131.157501,286.947937 129.315796,286.918823 
z"/>
<path fill="#372718" opacity="1.000000" stroke="none" 
	d="
M198.202545,269.883972 
	C198.658035,269.492096 199.466599,269.116089 200.615723,268.703674 
	C200.156082,269.078064 199.355850,269.488953 198.202545,269.883972 
z"/>
<path fill="#372718" opacity="1.000000" stroke="none" 
	d="
M195.171402,270.856079 
	C195.642441,270.490509 196.461700,270.163788 197.620544,269.824158 
	C197.146622,270.172455 196.333130,270.533691 195.171402,270.856079 
z"/>
<path fill="#372718" opacity="1.000000" stroke="none" 
	d="
M192.203949,271.896118 
	C192.661743,271.515717 193.465485,271.150452 194.611206,270.771362 
	C194.152084,271.142120 193.350998,271.526703 192.203949,271.896118 
z"/>
<path fill="#372718" opacity="1.000000" stroke="none" 
	d="
M189.176544,272.853668 
	C189.650925,272.476166 190.475281,272.134308 191.647369,271.802124 
	C191.172241,272.170959 190.349380,272.530151 189.176544,272.853668 
z"/>
<path fill="#372718" opacity="1.000000" stroke="none" 
	d="
M172.137009,277.793335 
	C172.632904,277.440582 173.477463,277.134399 174.668182,276.861633 
	C174.171448,277.209961 173.328568,277.524902 172.137009,277.793335 
z"/>
<path fill="#CF894E" opacity="1.000000" stroke="none" 
	d="
M287.331665,239.605225 
	C287.267914,239.935745 286.957123,240.347610 286.381531,240.803696 
	C286.439362,240.460800 286.761993,240.073685 287.331665,239.605225 
z"/>
<path fill="#CF894E" opacity="1.000000" stroke="none" 
	d="
M288.608093,238.298248 
	C288.580048,238.644455 288.311401,239.062485 287.781128,239.533020 
	C287.802155,239.180374 288.084808,238.775223 288.608093,238.298248 
z"/>
<path fill="#372718" opacity="1.000000" stroke="none" 
	d="
M134.220764,286.746246 
	C133.994019,286.741272 133.994629,286.565125 133.994965,286.124817 
	C134.184570,285.793884 134.374435,285.727173 134.868134,285.675110 
	C134.930710,285.984894 134.689438,286.279999 134.220764,286.746246 
z"/>
<path fill="#322C24" opacity="1.000000" stroke="none" 
	d="
M168.901566,170.097824 
	C161.641129,165.785110 154.380676,161.472382 147.116531,157.157471 
	C151.038544,150.840088 158.899826,147.293350 165.089066,149.018997 
	C182.879242,153.979111 200.589233,159.231262 218.422531,164.027328 
	C220.919769,164.698914 224.311737,164.185089 226.637222,162.970764 
	C235.184219,158.507721 243.397491,153.410187 251.868973,148.794876 
	C254.308441,147.465820 257.136902,146.649002 259.887451,146.137482 
	C264.675293,145.247070 269.178253,146.534424 271.671936,150.802032 
	C274.174713,155.085159 274.076599,159.961655 270.589478,163.861252 
	C267.842316,166.933411 264.705078,169.775436 261.339417,172.150452 
	C254.948303,176.660339 248.133408,180.574173 241.795715,185.152496 
	C239.966263,186.474091 238.296722,189.115860 238.032532,191.328888 
	C236.177078,206.871017 234.734192,222.462036 233.097931,238.030975 
	C232.702744,241.791122 222.699020,249.237350 219.292633,248.060257 
	C218.226334,247.691772 217.387985,245.569016 217.130585,244.126953 
	C215.024094,232.325378 213.084656,220.494019 211.078049,208.674500 
	C210.889709,207.565018 210.588654,206.474655 210.140320,204.493042 
	C198.801590,210.784836 187.909668,216.729553 177.168579,222.935318 
	C176.038284,223.588364 175.564896,225.722153 175.184647,227.266891 
	C173.911560,232.438583 172.882904,237.670120 171.636871,242.848938 
	C170.672607,246.856659 165.799561,250.380203 162.018829,249.373749 
	C160.833939,249.058334 159.602829,246.825745 159.385666,245.326843 
	C158.431030,238.738113 158.071030,232.058472 156.984482,225.496384 
	C156.630020,223.355591 155.176559,220.864380 153.448120,219.579529 
	C147.339066,215.038406 140.893219,210.950363 134.359924,206.545502 
	C137.152145,202.083099 140.278412,199.792984 145.304443,201.042358 
	C150.633820,202.367188 155.960205,203.882401 161.382385,204.579208 
	C164.038757,204.920593 167.375763,204.323212 169.599030,202.895782 
	C177.672974,197.711975 185.406281,191.997604 194.104950,185.896362 
	C185.311783,180.497345 177.299377,175.577713 169.477966,170.366180 
	C177.991318,171.625946 183.988571,177.392426 190.794724,181.701553 
	C195.188263,184.483200 195.473297,186.915817 191.354355,189.974548 
	C184.831879,194.818192 178.443649,199.939560 171.460358,204.022888 
	C168.200867,205.928818 163.632446,206.460464 159.744293,206.218277 
	C154.327438,205.880890 149.019577,204.039886 143.604050,203.273712 
	C142.120789,203.063873 140.419434,204.395538 138.818161,205.019836 
	C139.510468,206.127411 139.959335,207.565781 140.937149,208.285431 
	C145.203522,211.425369 149.548950,214.473343 154.012848,217.324249 
	C157.237350,219.383652 158.873413,222.001602 159.059113,225.898102 
	C159.303696,231.030533 159.740097,236.193680 160.683105,241.233383 
	C161.060257,243.249069 163.006317,244.971222 164.238220,246.826981 
	C166.188126,245.081863 169.178284,243.675415 169.878876,241.523560 
	C171.511246,236.509659 171.799927,231.074081 173.135437,225.940048 
	C173.683212,223.834274 175.097275,221.371796 176.864136,220.278152 
	C181.508728,217.403244 186.626144,215.305908 191.437256,212.682510 
	C196.381256,209.986633 201.075790,206.819763 206.084534,204.260254 
	C210.403839,202.053040 211.985901,202.992905 212.837799,207.798599 
	C214.019150,214.462891 214.950943,221.171173 216.109100,227.839874 
	C217.120224,233.662048 218.296753,239.455490 219.389969,245.207779 
	C227.628693,244.373428 231.155563,241.148361 231.863708,233.830017 
	C232.134476,231.031860 231.776550,228.178406 231.856567,225.354446 
	C231.915894,223.260376 232.181351,221.168808 232.421402,219.083771 
	C233.480591,209.883728 235.103302,200.703186 235.388885,191.480484 
	C235.513641,187.451019 236.784622,185.302383 239.739151,183.418442 
	C248.219971,178.010712 256.842163,172.808853 265.129761,167.119614 
	C270.484314,163.443848 271.926666,155.189346 268.525757,151.225708 
	C265.840271,148.095871 259.698303,146.865234 255.114365,149.244598 
	C248.062698,152.904861 241.035492,156.707504 234.422852,161.090805 
	C228.100403,165.281738 221.891266,168.305222 214.150177,165.685349 
	C206.174789,162.986176 198.224182,160.176529 190.130692,157.880768 
	C186.602112,156.879852 182.728226,157.150894 179.043839,156.618179 
	C177.548050,156.401886 176.172165,155.461395 174.685059,155.060837 
	C169.256516,153.598633 163.860443,151.660278 158.331665,151.108505 
	C156.247650,150.900513 153.835541,153.980042 151.572998,155.560898 
	C153.497986,157.425323 155.308334,159.429474 157.372940,161.123749 
	C161.136276,164.212051 165.050369,167.116608 168.901566,170.097824 
z"/>
<path fill="#6CC1D8" opacity="1.000000" stroke="none" 
	d="
M421.710358,296.947845 
	C421.668060,297.720428 421.625763,298.493042 421.242371,299.757874 
	C420.596252,300.800842 420.291260,301.351593 419.557007,301.904999 
	C416.818542,301.615356 414.514923,301.265411 412.199249,301.039246 
	C377.344208,297.635254 343.432251,302.165009 310.271332,313.117859 
	C287.505768,320.637207 266.789520,332.432526 245.928848,343.908112 
	C225.482574,355.155701 204.871796,365.987183 182.600357,373.319092 
	C160.923172,380.455353 138.578369,383.680511 115.918251,385.222168 
	C110.086113,376.811157 104.253967,368.400116 97.615463,358.826202 
	C105.579758,358.202240 111.921341,357.632782 118.273094,357.219574 
	C159.790359,354.518616 197.745926,340.471863 234.280273,321.454376 
	C257.582977,309.324493 280.875488,297.016296 304.940460,286.554352 
	C328.730347,276.212067 354.285889,271.812347 380.998199,270.314514 
	C389.887512,270.708282 397.978149,270.860626 406.479004,271.044403 
	C409.673126,271.393433 412.450317,271.803223 415.242584,272.006348 
	C419.148621,272.290497 421.181244,273.829987 421.100616,278.199432 
	C420.985382,284.443024 421.477570,290.697815 421.710358,296.947845 
z"/>
<path fill="#176688" opacity="1.000000" stroke="none" 
	d="
M115.994980,385.549011 
	C138.578369,383.680511 160.923172,380.455353 182.600357,373.319092 
	C204.871796,365.987183 225.482574,355.155701 245.928848,343.908112 
	C266.789520,332.432526 287.505768,320.637207 310.271332,313.117859 
	C343.432251,302.165009 377.344208,297.635254 412.199249,301.039246 
	C414.514923,301.265411 416.818542,301.615356 419.829498,301.993713 
	C420.722076,302.087219 420.912872,302.094666 421.103699,302.102112 
	C419.722626,310.185181 418.341522,318.268280 416.469727,326.674377 
	C411.873108,326.493713 407.780121,325.804016 403.659119,325.517700 
	C383.561951,324.121399 363.644714,325.302490 343.605194,330.006653 
	C330.814209,333.799622 318.419128,337.600525 305.642853,341.492981 
	C300.848145,343.482605 296.434570,345.380676 291.694702,347.366272 
	C288.764893,348.869171 286.161377,350.284546 283.214813,351.769043 
	C279.552002,353.820618 276.232239,355.803040 272.561401,357.843201 
	C270.716217,358.538300 269.222076,359.175659 267.385742,359.887665 
	C261.041870,363.375946 255.035828,366.781860 249.039337,370.204529 
	C221.609970,385.860626 193.139038,398.955292 161.988647,405.381714 
	C153.892273,407.052032 145.739349,408.448334 137.612396,409.970490 
	C130.432175,401.938934 123.251938,393.907379 115.994980,385.549011 
z"/>
<path fill="#176589" opacity="1.000000" stroke="none" 
	d="
M205.164871,447.692566 
	C192.893570,442.319305 180.622269,436.946045 168.489349,431.045105 
	C175.397873,428.827209 182.249420,427.407196 188.923126,425.396851 
	C210.137299,419.006409 228.879929,407.376099 248.192947,396.981171 
	C251.950684,394.958618 255.459076,392.472839 259.450897,390.175659 
	C262.000824,389.172272 264.182373,388.193909 266.535889,387.192108 
	C266.707886,387.168671 266.999756,386.980652 267.354065,386.920349 
	C289.231323,375.832703 311.410004,366.241730 335.209442,361.669312 
	C351.616974,358.517059 368.412598,357.385101 385.488586,355.454987 
	C392.287994,356.072937 398.633636,356.586151 404.979279,357.099365 
	C400.216156,365.255951 395.453064,373.412567 390.071747,381.579468 
	C377.693756,382.225159 365.807587,381.985291 354.198212,383.662048 
	C320.929749,388.467041 290.620972,401.770660 261.241882,417.529205 
	C243.490494,427.050842 225.545837,436.212006 207.710480,445.577881 
	C206.755203,446.079498 206.008606,446.978546 205.164871,447.692566 
z"/>
<path fill="#3B9DC1" opacity="1.000000" stroke="none" 
	d="
M205.556717,447.775818 
	C206.008606,446.978546 206.755203,446.079498 207.710480,445.577881 
	C225.545837,436.212006 243.490494,427.050842 261.241882,417.529205 
	C290.620972,401.770660 320.929749,388.467041 354.198212,383.662048 
	C365.807587,381.985291 377.693756,382.225159 389.825500,381.796326 
	C381.419159,391.683075 372.640869,401.363281 363.087769,411.045105 
	C359.834503,411.207001 357.341309,411.246521 354.879761,411.546204 
	C332.084961,414.321472 310.285126,420.833160 289.582581,430.527802 
	C274.741852,437.477417 260.517273,445.742737 246.017792,453.421082 
	C233.238647,454.769745 221.089157,451.274750 208.836075,448.582001 
	C207.867401,448.369110 206.910782,448.101379 205.556717,447.775818 
z"/>
<path fill="#68BFD7" opacity="1.000000" stroke="none" 
	d="
M259.082489,390.200745 
	C255.459076,392.472839 251.950684,394.958618 248.192947,396.981171 
	C228.879929,407.376099 210.137299,419.006409 188.923126,425.396851 
	C182.249420,427.407196 175.397873,428.827209 168.322937,430.746216 
	C161.537643,426.979614 154.947220,423.148987 148.618423,418.926208 
	C144.895187,416.441925 141.587448,413.334930 137.852631,410.239227 
	C145.739349,408.448334 153.892273,407.052032 161.988647,405.381714 
	C193.139038,398.955292 221.609970,385.860626 249.039337,370.204529 
	C255.035828,366.781860 261.041870,363.375946 267.641541,360.161926 
	C270.175323,363.387085 272.469696,363.853607 275.380005,361.510712 
	C274.463562,360.127167 273.688019,358.956329 272.912445,357.785461 
	C276.232239,355.803040 279.552002,353.820618 283.479340,352.036469 
	C287.317108,356.944214 287.659515,356.915436 293.545044,351.276886 
	C293.061096,350.007324 292.541077,348.643036 292.021027,347.278748 
	C296.434570,345.380676 300.848145,343.482605 305.670837,341.914581 
	C307.402069,343.070374 308.671021,344.482727 310.056580,344.608307 
	C313.742828,344.942322 317.479370,344.721832 322.006744,344.721832 
	C321.041504,346.470123 320.534058,348.603516 319.661804,348.764893 
	C315.207703,349.588989 312.959045,353.516113 309.675293,355.366241 
	C305.010925,357.994263 301.850372,365.184540 294.237000,361.628204 
	C294.814056,363.130676 295.522705,363.846283 295.797211,364.701294 
	C296.172668,365.870758 296.797791,367.632904 296.269348,368.262329 
	C295.471832,369.212219 293.354340,370.212524 292.521454,369.784210 
	C287.475891,367.189758 283.745575,368.885315 280.322266,372.681213 
	C279.815979,373.242645 278.850159,373.633759 278.076752,373.669830 
	C273.681122,373.874786 271.310394,375.860016 272.152618,380.750702 
	C267.126038,380.474518 266.684387,383.453583 266.999756,386.980652 
	C266.999756,386.980652 266.707886,387.168671 266.232605,386.988556 
	C264.287842,382.285492 263.239502,377.403076 257.413300,376.408478 
	C256.293365,376.217255 254.370544,375.910034 254.121460,376.366913 
	C253.452484,377.594025 252.840973,379.519135 253.366486,380.606537 
	C254.980148,383.945557 257.136871,387.022156 259.082489,390.200745 
z"/>
<path fill="#176587" opacity="1.000000" stroke="none" 
	d="
M246.379883,453.608887 
	C260.517273,445.742737 274.741852,437.477417 289.582581,430.527802 
	C310.285126,420.833160 332.084961,414.321472 354.879761,411.546204 
	C357.341309,411.246521 359.834503,411.207001 362.766052,411.156830 
	C354.386261,417.899048 346.081146,425.428741 336.619751,430.991974 
	C310.205536,446.523346 281.579834,454.751831 250.695450,454.113098 
	C249.376007,454.085815 248.059723,453.905640 246.379883,453.608887 
z"/>
<path fill="#69BFD7" opacity="1.000000" stroke="none" 
	d="
M405.279846,356.906311 
	C398.633636,356.586151 392.287994,356.072937 385.478516,355.079468 
	C385.420074,349.676544 383.258881,347.653900 378.252106,347.940735 
	C370.760132,348.369965 363.177490,348.654694 356.682404,343.799164 
	C355.437744,342.868683 354.465118,341.574371 353.366974,340.447906 
	C354.440765,339.565155 355.726837,338.840820 356.534027,337.759155 
	C357.516022,336.443268 358.094696,334.826447 358.847839,333.339844 
	C357.572388,332.722900 356.303802,331.611206 355.019989,331.593262 
	C352.445801,331.557312 349.853180,332.397919 347.288788,332.305420 
	C346.166809,332.264923 345.095428,330.821167 344.001068,330.014648 
	C363.644714,325.302490 383.561951,324.121399 403.659119,325.517700 
	C407.780121,325.804016 411.873108,326.493713 416.380127,327.069122 
	C413.047638,336.998291 409.313995,346.855804 405.279846,356.906311 
z"/>
<path fill="#362921" opacity="1.000000" stroke="none" 
	d="
M193.808884,319.747375 
	C206.658157,313.117035 219.950943,306.565063 233.600296,299.969971 
	C228.800003,303.344055 223.832199,307.103027 218.436127,310.087738 
	C212.360397,313.448395 205.940628,316.206421 199.575287,319.010406 
	C197.989075,319.709167 196.036560,319.576385 193.808884,319.747375 
z"/>
<path fill="#76B8CA" opacity="1.000000" stroke="none" 
	d="
M421.810272,296.514038 
	C421.477570,290.697815 420.985382,284.443024 421.100616,278.199432 
	C421.181244,273.829987 419.148621,272.290497 415.242584,272.006348 
	C412.450317,271.803223 409.673126,271.393433 406.454468,270.820709 
	C406.019714,270.565552 405.970917,270.118622 405.970917,270.118652 
	C408.768311,270.252838 411.577362,270.268707 414.360870,270.543610 
	C422.452087,271.342712 422.541168,271.383972 422.494812,279.729187 
	C422.464539,285.180450 422.116089,290.629974 421.810272,296.514038 
z"/>
<path fill="#8ECCE2" opacity="1.000000" stroke="none" 
	d="
M405.508057,270.054993 
	C405.970917,270.118622 406.019714,270.565552 406.044250,270.789246 
	C397.978149,270.860626 389.887512,270.708282 381.433960,270.374390 
	C389.062469,270.125671 397.053833,270.058502 405.508057,270.054993 
z"/>
<path fill="#76B8CA" opacity="1.000000" stroke="none" 
	d="
M421.216492,301.850830 
	C420.912872,302.094666 420.722076,302.087219 420.258728,301.991028 
	C420.291260,301.351593 420.596252,300.800842 421.105896,300.123474 
	C421.316772,300.531097 421.323029,301.065308 421.216492,301.850830 
z"/>
<path fill="#D4793E" opacity="1.000000" stroke="none" 
	d="
M427.656311,252.069214 
	C409.888550,251.887207 391.852112,251.293655 373.810822,251.027115 
	C369.201874,250.959015 364.577637,251.926285 359.518982,252.411316 
	C360.574158,251.800293 362.027557,250.829041 363.573914,250.646912 
	C383.747650,248.270905 403.930420,248.162521 424.097412,250.766617 
	C425.218414,250.911362 426.290802,251.432983 427.656311,252.069214 
z"/>
<path fill="#000000" opacity="1.000000" stroke="none" 
	d="
M342.142914,149.938354 
	C333.502655,143.671829 329.513794,134.513397 326.989990,124.669876 
	C325.082703,117.230896 328.668365,110.742599 331.945618,104.423889 
	C338.954285,90.910835 356.146118,84.413666 367.532806,88.382904 
	C381.889679,93.387512 392.588165,109.056526 392.240753,123.572418 
	C391.944611,135.942703 379.869293,150.133423 368.830994,153.900955 
	C368.220154,154.109421 367.510254,154.027573 366.154419,154.157455 
	C364.927124,154.782501 364.391846,155.330978 363.856567,155.879456 
	C361.170319,155.635391 358.484009,155.391327 355.202087,154.807617 
	C351.710052,153.710617 348.813660,152.953293 345.917297,152.195984 
	C345.768433,151.878174 345.619598,151.560364 345.247864,150.799927 
	C344.826172,150.085876 344.558960,149.960541 344.223389,149.981308 
	C344.022247,149.978363 343.821136,149.975433 343.100769,149.981964 
	C342.581512,149.991409 342.142914,149.938354 342.142914,149.938354 
M377.931091,123.297646 
	C378.101593,117.091171 376.152985,110.965271 371.471497,107.620522 
	C367.177643,104.552696 362.659882,101.103119 355.230591,103.542336 
	C347.286011,106.150726 343.023071,110.285980 341.385834,117.535751 
	C339.782043,124.637566 341.862701,131.441528 347.117676,136.419937 
	C352.169891,141.206284 358.520294,142.286652 365.392029,140.008423 
	C373.153534,137.435211 376.299438,131.470169 377.931091,123.297646 
z"/>
<path fill="#111F26" opacity="1.000000" stroke="none" 
	d="
M346.002014,152.493469 
	C348.813660,152.953293 351.710052,153.710617 354.784424,154.791885 
	C351.772247,155.225235 348.195892,156.808777 346.002014,152.493469 
z"/>
<path fill="#111F26" opacity="1.000000" stroke="none" 
	d="
M364.158447,155.837265 
	C364.391846,155.330978 364.927124,154.782501 365.758301,154.188339 
	C365.522919,154.693451 364.991638,155.244263 364.158447,155.837265 
z"/>
<path fill="#111F26" opacity="1.000000" stroke="none" 
	d="
M341.996887,150.095993 
	C342.142914,149.938354 342.581512,149.991409 342.801056,150.016998 
	C342.617676,150.401764 342.214722,150.760925 341.811798,151.120087 
	C341.824829,150.831268 341.837830,150.542450 341.996887,150.095993 
z"/>
<path fill="#111F26" opacity="1.000000" stroke="none" 
	d="
M344.394104,150.108948 
	C344.558960,149.960541 344.826172,150.085876 345.133789,150.562698 
	C345.009247,150.600357 344.783325,150.423187 344.394104,150.108948 
z"/>
<path fill="#151E26" opacity="1.000000" stroke="none" 
	d="
M340.995728,64.002876 
	C340.991455,64.005798 341.059723,64.096809 341.032745,64.044106 
	C341.005768,63.991405 341.000000,63.999950 340.995728,64.002876 
z"/>
<path fill="#152D3A" opacity="1.000000" stroke="none" 
	d="
M168.937195,170.047302 
	C165.050369,167.116608 161.136276,164.212051 157.372940,161.123749 
	C155.308334,159.429474 153.497986,157.425323 151.572998,155.560898 
	C153.835541,153.980042 156.247650,150.900513 158.331665,151.108505 
	C163.860443,151.660278 169.256516,153.598633 174.685059,155.060837 
	C176.172165,155.461395 177.548050,156.401886 179.043839,156.618179 
	C182.728226,157.150894 186.602112,156.879852 190.130692,157.880768 
	C198.224182,160.176529 206.174789,162.986176 214.150177,165.685349 
	C221.891266,168.305222 228.100403,165.281738 234.422852,161.090805 
	C241.035492,156.707504 248.062698,152.904861 255.114365,149.244598 
	C259.698303,146.865234 265.840271,148.095871 268.525757,151.225708 
	C271.926666,155.189346 270.484314,163.443848 265.129761,167.119614 
	C256.842163,172.808853 248.219971,178.010712 239.739151,183.418442 
	C236.784622,185.302383 235.513641,187.451019 235.388885,191.480484 
	C235.103302,200.703186 233.480591,209.883728 232.421402,219.083771 
	C232.181351,221.168808 231.915894,223.260376 231.856567,225.354446 
	C231.776550,228.178406 232.134476,231.031860 231.863708,233.830017 
	C231.155563,241.148361 227.628693,244.373428 219.389969,245.207779 
	C218.296753,239.455490 217.120224,233.662048 216.109100,227.839874 
	C214.950943,221.171173 214.019150,214.462891 212.837799,207.798599 
	C211.985901,202.992905 210.403839,202.053040 206.084534,204.260254 
	C201.075790,206.819763 196.381256,209.986633 191.437256,212.682510 
	C186.626144,215.305908 181.508728,217.403244 176.864136,220.278152 
	C175.097275,221.371796 173.683212,223.834274 173.135437,225.940048 
	C171.799927,231.074081 171.511246,236.509659 169.878876,241.523560 
	C169.178284,243.675415 166.188126,245.081863 164.238220,246.826981 
	C163.006317,244.971222 161.060257,243.249069 160.683105,241.233383 
	C159.740097,236.193680 159.303696,231.030533 159.059113,225.898102 
	C158.873413,222.001602 157.237350,219.383652 154.012848,217.324249 
	C149.548950,214.473343 145.203522,211.425369 140.937149,208.285431 
	C139.959335,207.565781 139.510468,206.127411 138.818161,205.019836 
	C140.419434,204.395538 142.120789,203.063873 143.604050,203.273712 
	C149.019577,204.039886 154.327438,205.880890 159.744293,206.218277 
	C163.632446,206.460464 168.200867,205.928818 171.460358,204.022888 
	C178.443649,199.939560 184.831879,194.818192 191.354355,189.974548 
	C195.473297,186.915817 195.188263,184.483200 190.794724,181.701553 
	C183.988571,177.392426 177.991318,171.625946 169.286713,170.088165 
	C168.904480,170.102051 168.972809,169.996796 168.937195,170.047302 
z"/>
<path fill="#65BED6" opacity="1.000000" stroke="none" 
	d="
M343.605194,330.006653 
	C345.095428,330.821167 346.166809,332.264923 347.288788,332.305420 
	C349.853180,332.397919 352.445801,331.557312 355.019989,331.593262 
	C356.303802,331.611206 357.572388,332.722900 358.847839,333.339844 
	C358.094696,334.826447 357.516022,336.443268 356.534027,337.759155 
	C355.726837,338.840820 354.440765,339.565155 353.366974,340.447906 
	C354.465118,341.574371 355.437744,342.868683 356.682404,343.799164 
	C363.177490,348.654694 370.760132,348.369965 378.252106,347.940735 
	C383.258881,347.653900 385.420074,349.676544 385.024719,354.974731 
	C368.412598,357.385101 351.616974,358.517059 335.209442,361.669312 
	C311.410004,366.241730 289.231323,375.832703 267.354065,386.920349 
	C266.684387,383.453583 267.126038,380.474518 272.152618,380.750702 
	C271.310394,375.860016 273.681122,373.874786 278.076752,373.669830 
	C278.850159,373.633759 279.815979,373.242645 280.322266,372.681213 
	C283.745575,368.885315 287.475891,367.189758 292.521454,369.784210 
	C293.354340,370.212524 295.471832,369.212219 296.269348,368.262329 
	C296.797791,367.632904 296.172668,365.870758 295.797211,364.701294 
	C295.522705,363.846283 294.814056,363.130676 294.237000,361.628204 
	C301.850372,365.184540 305.010925,357.994263 309.675293,355.366241 
	C312.959045,353.516113 315.207703,349.588989 319.661804,348.764893 
	C320.534058,348.603516 321.041504,346.470123 322.006744,344.721832 
	C317.479370,344.721832 313.742828,344.942322 310.056580,344.608307 
	C308.671021,344.482727 307.402069,343.070374 306.052002,341.823059 
	C318.419128,337.600525 330.814209,333.799622 343.605194,330.006653 
M377.526520,354.499084 
	C377.526520,354.499084 377.487213,354.513062 377.526520,354.499084 
z"/>
<path fill="#65BED6" opacity="1.000000" stroke="none" 
	d="
M291.694702,347.366272 
	C292.541077,348.643036 293.061096,350.007324 293.545044,351.276886 
	C287.659515,356.915436 287.317108,356.944214 283.822388,351.967346 
	C286.161377,350.284546 288.764893,348.869171 291.694702,347.366272 
z"/>
<path fill="#66BED7" opacity="1.000000" stroke="none" 
	d="
M272.561401,357.843201 
	C273.688019,358.956329 274.463562,360.127167 275.380005,361.510712 
	C272.469696,363.853607 270.175323,363.387085 267.983765,360.087341 
	C269.222076,359.175659 270.716217,358.538300 272.561401,357.843201 
z"/>
<path fill="#65BED6" opacity="1.000000" stroke="none" 
	d="
M259.450897,390.175659 
	C257.136871,387.022156 254.980148,383.945557 253.366486,380.606537 
	C252.840973,379.519135 253.452484,377.594025 254.121460,376.366913 
	C254.370544,375.910034 256.293365,376.217255 257.413300,376.408478 
	C263.239502,377.403076 264.287842,382.285492 266.060608,387.011993 
	C264.182373,388.193909 262.000824,389.172272 259.450897,390.175659 
z"/>
<path fill="#F38D3E" opacity="1.000000" stroke="none" 
	d="
M377.898743,123.722946 
	C376.299438,131.470169 373.153534,137.435211 365.392029,140.008423 
	C358.520294,142.286652 352.169891,141.206284 347.117676,136.419937 
	C341.862701,131.441528 339.782043,124.637566 341.385834,117.535751 
	C343.023071,110.285980 347.286011,106.150726 355.230591,103.542336 
	C362.659882,101.103119 367.177643,104.552696 371.471497,107.620522 
	C376.152985,110.965271 378.101593,117.091171 377.898743,123.722946 
z"/>
<path fill="#69BFD7" opacity="1.000000" stroke="none" 
	d="
M377.506866,354.506073 
	C377.487213,354.513062 377.526520,354.499084 377.506866,354.506073 
z"/>
</svg>