<?xml version="1.0" standalone="no"?>
<!DOCTYPE svg PUBLIC "-//W3C//DTD SVG 20010904//EN"
 "http://www.w3.org/TR/2001/REC-SVG-20010904/DTD/svg10.dtd">
<svg version="1.0" xmlns="http://www.w3.org/2000/svg"
 width="37.000000pt" height="35.000000pt" viewBox="0 0 37.000000 35.000000"
 preserveAspectRatio="xMidYMid meet">
<metadata>
Created by potrace 1.10, written by Peter Selinger 2001-2011
</metadata>
<g transform="translate(0.000000,35.000000) scale(0.100000,-0.100000)"
fill="#000000" stroke="none">
<path d="M222 288 c-16 -16 -15 -39 4 -66 13 -19 18 -21 32 -10 12 11 14 11
11 0 -5 -16 -111 -62 -156 -69 -41 -6 -41 -16 -4 -54 23 -23 38 -29 71 -29 35
0 48 6 77 35 33 33 35 38 28 78 -4 23 -7 56 -6 74 1 22 -5 36 -18 43 -24 13
-24 13 -39 -2z m36 -31 c2 -10 -3 -17 -12 -17 -18 0 -29 16 -21 31 9 14 29 6
33 -14z m-13 -101 c-22 -7 -54 -20 -72 -29 -18 -9 -42 -17 -55 -17 -38 1 92
58 132 58 l35 1 -40 -13z m20 -26 c-3 -5 -15 -10 -26 -10 -11 0 -36 -8 -57
-19 -20 -10 -43 -16 -50 -14 -19 7 77 51 111 52 16 1 26 -3 22 -9z m-20 -29
c-12 -10 -75 -32 -75 -26 0 2 12 11 28 19 30 17 62 22 47 7z"/>
<path d="M111 241 c-32 -30 -41 -61 -18 -61 8 0 13 10 13 22 -1 14 6 24 17 26
9 2 17 -1 17 -7 0 -6 -8 -7 -17 -4 -16 6 -16 5 -4 -10 10 -13 17 -15 27 -6 11
9 14 8 15 -2 0 -8 4 -4 9 9 5 12 14 22 20 22 5 0 10 4 10 10 0 5 -13 7 -30 4
-40 -9 -38 3 3 15 l32 9 -31 1 c-22 1 -41 -8 -63 -28z"/>
<path d="M52 208 c-30 -30 -8 -58 46 -58 31 0 106 32 117 49 4 7 -10 3 -31 -8
-24 -13 -57 -21 -86 -21 -52 0 -53 1 -38 31 12 22 9 24 -8 7z"/>
</g>
</svg>
